<svg xmlns="http://www.w3.org/2000/svg" viewBox="0 0 512 512"><title>Artboard 128</title><g id="Male_Graduated_Student" data-name="Male Graduated Student"><path d="M448,128,256,234.66667,64,128C64,69.08963,149.96133,21.33333,256,21.33333S448,69.08963,448,128Z" style="fill:#95070c"/><path d="M384,149.33333v-1.79166A104.41675,104.41675,0,0,0,354.97917,75.125l15.41666-14.72917a125.536,125.536,0,0,1,34.9375,87.14584Z" style="fill:#730005"/><rect x="341.33333" y="192" width="42.66667" height="64" rx="21.33331" ry="21.33331" style="fill:#cb7956"/><rect x="128" y="192" width="42.66667" height="64" rx="21.33331" ry="21.33331" style="fill:#e29971"/><path d="M192,277.33333v64a21.33334,21.33334,0,0,1-21.33333,21.33334h-64A85.33333,85.33333,0,0,0,21.33333,448v42.66667H490.66667V448a85.33333,85.33333,0,0,0-85.33334-85.33333h-64A21.33334,21.33334,0,0,1,320,341.33333v-64Z" style="fill:#e29971"/><rect x="149.33333" y="405.33333" width="85.33333" height="42.66667" rx="21.33331" ry="21.33331" style="fill:#edbda4"/><circle cx="213.33333" cy="426.66667" r="21.33333" style="fill:#f5d9cb"/><path d="M341.33333,362.66667A21.33356,21.33356,0,0,1,320,341.33333v-64H256v85.33334h21.33333V384H234.66667v21.33333a21.33333,21.33333,0,1,0,42.66666,0h85.33334V362.66667Z" style="fill:#cb7956"/><path d="M256,384V490.66667H490.66667V448a85.33333,85.33333,0,0,0-85.33334-85.33333h-64L320,341.33333Z" style="fill:#95daec"/><path d="M192,341.33333,256,384V490.66667H21.33333V448a85.33333,85.33333,0,0,1,85.33334-85.33333h64Z" style="fill:#caecf6"/><path d="M341.33333,362.66667H490.66667a0,0,0,0,1,0,0v128a0,0,0,0,1,0,0h-64a85.33333,85.33333,0,0,1-85.33333-85.33333V362.66667A0,0,0,0,1,341.33333,362.66667Z" transform="translate(832 853.33333) rotate(-180)" style="fill:#c6262d"/><rect x="362.66667" y="384" width="42.66667" height="106.66667" style="fill:#ab0008"/><rect x="341.33333" y="362.66667" width="42.66667" height="128" style="fill:#cb393f"/><polygon points="298.667 448 298.667 490.667 256 490.667 256 426.667 277.333 405.333 341.333 405.333 298.667 448" style="fill:#3ebcdd"/><polygon points="213.333 405.333 234.667 426.667 213.333 490.667 298.667 490.667 277.333 426.667 301.334 406.667 256 384 213.333 405.333" style="fill:#ce464d"/><rect x="234.66667" y="384" width="42.66667" height="21.33333" style="fill:#d7686d"/><rect x="234.66667" y="448" width="21.33333" height="42.66667" style="fill:#d7686d"/><rect x="234.66667" y="469.33333" width="21.33333" height="21.33333" style="fill:#e8a8ab"/><rect x="234.66667" y="426.66667" width="42.66667" height="21.33333" style="fill:#ab0008"/><rect x="256" y="405.33333" width="21.33333" height="21.33333" style="fill:#c6262d"/><rect x="170.66667" y="405.33333" width="21.33333" height="85.33333" style="fill:#95daec"/><polygon points="192 341.333 170.667 362.667 170.667 426.667 256 384 192 341.333" style="fill:#e7f6fa"/><polygon points="256 384 341.333 426.667 341.333 362.667 320 341.333 256 384" style="fill:#caecf6"/><path d="M106.66667,362.66667h64a0,0,0,0,1,0,0v128a0,0,0,0,1,0,0H21.33333a0,0,0,0,1,0,0V448A85.33333,85.33333,0,0,1,106.66667,362.66667Z" style="fill:#cb393f"/><rect x="128" y="362.66667" width="42.66667" height="128" style="fill:#d7686d"/><rect x="149.33333" y="42.66667" width="213.33333" height="298.66656" rx="106.66656" ry="106.66656" style="fill:#edbda4"/><path d="M320,64.48307v84.85026H277.33333v21.33334H320v42.66659a21.33333,21.33333,0,0,1,21.33333,21.33333v.00008A21.33333,21.33333,0,0,1,320,256H256v64h21.33333v19.18359a106.69065,106.69065,0,0,0,85.33334-104.51692V149.33333C362.66667,114.54948,345.76563,83.95443,320,64.48307Z" style="fill:#e29971"/><polygon points="128 192 149.333 192 149.333 213.333 170.667 213.333 170.667 149.333 128 149.333 128 192" style="fill:#8f492b"/><polygon points="341.333 149.333 341.333 213.333 362.667 213.333 362.667 192 384 192 384 149.333 341.333 149.333" style="fill:#552a1f"/><path d="M384.00011,170.66708V149.33321A127.99987,127.99987,0,0,0,256.00024,21.33333H256A127.99988,127.99988,0,0,0,128.00011,149.33321v21.33387s42.66649-21.33375,127.99982-21.33375S384.00011,170.66708,384.00011,170.66708Z" style="fill:#c6262d"/><path d="M256,21.33333v128c85.33333,0,128,21.33334,128,21.33334V149.33333A127.99966,127.99966,0,0,0,256,21.33333Z" style="fill:#ab0008"/><path d="M369.75,165.40625c-.45833-.16667-46-16.07292-113.75-16.07292s-113.29167,15.90625-113.75,16.07292l-7.16667-20.09375C137.04167,144.60417,184.29167,128,256,128s118.95833,16.60417,120.91667,17.3125Z" style="fill:#ab0008"/><path d="M142.25,144.07292l-7.16667-20.09375c1.95834-.70834,49.20834-17.3125,120.91667-17.3125a450.16844,450.16844,0,0,1,65.5625,4.75l-3.125,21.10416A429.1499,429.1499,0,0,0,256,128C188.25,128,142.70833,143.90625,142.25,144.07292Z" style="fill:#c6262d"/><path d="M259.1875,127.51042l-6.375-20.35417A1041.8568,1041.8568,0,0,1,360.6875,80.875l3.95833,20.95833A1041.90183,1041.90183,0,0,0,259.1875,127.51042Z" style="fill:#95070c"/><polygon points="234.667 234.667 234.667 256 277.333 256 277.333 192 320 192 320 170.667 256 170.667 256 234.667 234.667 234.667" style="fill:#cb7956"/><rect x="298.66667" y="192" width="21.33333" height="21.33333" style="fill:#4c2c1a"/><rect x="192" y="192" width="21.33333" height="21.33333" style="fill:#4c2c1a"/><rect x="234.66667" y="277.33333" width="42.66667" height="21.33333" style="fill:#ce464d"/><path d="M64,490.66667H42.66667V448a64.07,64.07,0,0,1,64-64v21.33333A42.71555,42.71555,0,0,0,64,448Z" style="fill:#d7686d"/><path d="M89.89583,74.66667c102.10417,0,166.10417,32,166.10417,32s85.33333-32,166.10417-32C388.89193,42.8151,327.026,21.33333,256,21.33333S123.10807,42.8151,89.89583,74.66667Z" style="fill:#e08a8e"/><path d="M256,107.26042l-3.41667-1.15625c-.47916-.15625-47.45833-15.9375-126.4375-29.8125l3.70834-21.02084C199.29167,67.48958,243.6875,80.85417,256,84.78125c12.3125-3.92708,56.70833-17.29167,126.14583-29.51042l3.70834,21.02084c-78.97917,13.875-125.95834,29.65625-126.4375,29.8125Z" style="fill:#d7686d"/><rect x="149.33333" y="384" width="21.33333" height="106.66667" style="fill:#ce464d"/><rect x="341.33333" y="384" width="21.33333" height="106.66667" style="fill:#d7686d"/><rect x="106.66667" y="42.66667" width="21.33333" height="192" style="fill:#133846"/><path d="M106.66667,192s-21.33334,0-21.33334,21.33333v85.33334h21.33334V277.33333l21.33339,21.33339h21.33327s0-64,0-85.33339S128,192,128,192Z" style="fill:#345460"/><rect x="85.33333" y="213.33333" width="21.33333" height="85.33333" style="fill:#4c6a74"/><path d="M149.33333,298.66667H128l-21.33333-21.33334V192H128a21.33333,21.33333,0,0,1,21.33333,21.33333Z" style="fill:#224552"/><rect x="128" y="213.33333" width="21.33333" height="85.33333" style="fill:#062d3c"/><circle cx="117.33333" cy="160" r="32" style="fill:#345460"/><rect x="106.66667" y="106.66667" width="21.33333" height="21.33333" style="fill:#062d3c"/><circle cx="96" cy="160" r="10.66667" style="fill:#4c6a74"/></g></svg>