<?xml version="1.0" encoding="utf-8"?>
<!-- Generator: Adobe Illustrator 24.0.0, SVG Export Plug-In . SVG Version: 6.00 Build 0)  -->
<svg version="1.1" xmlns="http://www.w3.org/2000/svg" xmlns:xlink="http://www.w3.org/1999/xlink" x="0px" y="0px"
	 viewBox="0 0 256 256" enable-background="new 0 0 256 256" xml:space="preserve">
<g id="Layer_1">
</g>
<g id="Layer_2">
</g>
<g id="Layer_3">
</g>
<g id="Layer_4">
</g>
<g id="Layer_5">
</g>
<g id="Layer_6">
</g>
<g id="Layer_7">
</g>
<g id="Layer_8">
</g>
<g id="Layer_9">
</g>
<g id="Layer_10">
</g>
<g id="Layer_11">
</g>
<g id="Layer_12">
</g>
<g id="Layer_13">
</g>
<g id="Layer_14">
</g>
<g id="Layer_15">
</g>
<g id="Layer_16">
</g>
<g id="Layer_17">
</g>
<g id="Layer_18">
</g>
<g id="Layer_19">
</g>
<g id="Layer_20">
</g>
<g id="Layer_21">
</g>
<g id="Layer_22">
</g>
<g id="Layer_23">
</g>
<g id="Layer_24">
</g>
<g id="Layer_25">
</g>
<g id="Layer_26">
</g>
<g id="Layer_27">
</g>
<g id="Layer_28">
</g>
<g id="Layer_29">
</g>
<g id="Layer_30">
</g>
<g id="Layer_31">
</g>
<g id="Layer_32">
</g>
<g id="Layer_33">
</g>
<g id="Layer_34">
</g>
<g id="Layer_35">
</g>
<g id="Layer_36">
</g>
<g id="Layer_37">
</g>
<g id="Layer_38">
</g>
<g id="Layer_39">
</g>
<g id="Layer_40">
</g>
<g id="Layer_41">
</g>
<g id="Layer_42">
</g>
<g id="Layer_43">
</g>
<g id="Layer_44">
</g>
<g id="Layer_45">
</g>
<g id="Layer_46">
</g>
<g id="Layer_47">
</g>
<g id="Layer_48">
</g>
<g id="Layer_49">
</g>
<g id="Layer_50">
</g>
<g id="Layer_51">
</g>
<g id="Layer_52">
</g>
<g id="Layer_53">
</g>
<g id="Layer_54">
</g>
<g id="Layer_55">
</g>
<g id="Layer_56">
</g>
<g id="Layer_57">
</g>
<g id="Layer_58">
</g>
<g id="Layer_59">
</g>
<g id="Layer_60">
</g>
<g id="Layer_61">
</g>
<g id="Layer_62">
</g>
<g id="Layer_63">
</g>
<g id="Layer_64">
</g>
<g id="Layer_65">
</g>
<g id="Layer_66">
</g>
<g id="Layer_67">
</g>
<g id="Layer_68">
</g>
<g id="Layer_69">
</g>
<g id="Layer_70">
</g>
<g id="Layer_71">
</g>
<g id="Layer_72">
</g>
<g id="Layer_73">
</g>
<g id="Layer_74">
	<g>
		<g>
			<g>
				<path fill="#F98FA6" d="M192.469,84.5h-6.191c-4.347,0-7.905,3.557-7.905,7.905v47.19c0,4.348,3.557,7.905,7.905,7.905h6.191
					c4.347,0,7.905-3.557,7.905-7.905v-47.19C200.373,88.057,196.816,84.5,192.469,84.5z"/>
			</g>
		</g>
		<g>
			<g>
				<path fill="#FC657E" d="M205.114,88.719h-5.663c0.586,1.103,0.922,2.356,0.922,3.687v47.19c0,1.329-0.336,2.583-0.922,3.686
					h5.663c2.533,0,4.605-2.072,4.605-4.604V93.324C209.719,90.791,207.647,88.719,205.114,88.719z"/>
			</g>
		</g>
		<g>
			<g>
				<path fill="#F98FA6" d="M69.722,84.5h-6.191c-4.347,0-7.905,3.557-7.905,7.905v47.19c0,4.348,3.557,7.905,7.905,7.905h6.191
					c4.347,0,7.905-3.557,7.905-7.905v-47.19C77.627,88.057,74.07,84.5,69.722,84.5z"/>
			</g>
		</g>
		<g>
			<g>
				<path fill="#FC657E" d="M55.627,92.405c0-1.33,0.336-2.584,0.922-3.687h-5.663c-2.533,0-4.606,2.072-4.606,4.605v45.353
					c0,2.532,2.072,4.604,4.605,4.604h5.663c-0.586-1.103-0.922-2.356-0.922-3.686V92.405z"/>
			</g>
		</g>
		<g>
			<g>
				<path fill="#DAE6F1" d="M128,9.941c-39.499,0-71.634,32.135-71.634,71.634v7.522c1.259-2.705,3.999-4.597,7.165-4.597h6.191
					c0.553,0,1.092,0.059,1.613,0.168v-3.093C71.336,50.33,96.755,24.91,128,24.91s56.664,25.419,56.664,56.665v3.093
					c0.521-0.109,1.061-0.168,1.614-0.168h6.191c3.167,0,5.906,1.892,7.165,4.597v-7.522C199.634,42.076,167.499,9.941,128,9.941z"
					/>
			</g>
		</g>
		<g>
			<g>
				<path fill="#5B5D60" d="M128,24.91c-31.245,0-56.664,25.419-56.664,56.665v3.093c3.58,0.75,6.291,3.942,6.291,7.737v1.505
					c0.002-1.694,1.593-2.944,3.251-2.597c9.126,1.91,36.267,5.175,54.666-17.963c1.008-1.268,2.875-1.387,4.032-0.253
					c4.237,4.153,15.263,12.447,36.189,13.061c1.428,0.042,2.572,1.219,2.601,2.648c0.005,0.262,0.008,0.524,0.008,0.788v2.812
					c0-3.795,2.711-6.986,6.291-7.737v-3.093C184.664,50.33,159.245,24.91,128,24.91z"/>
			</g>
		</g>
		<g>
			<g>
				<path fill="#FCDD86" d="M160.913,202.929c-0.6-0.295-1.171-0.631-1.725-0.988c-6.454,10.92-18.343,18.264-31.92,18.264
					c-13.31,0-25-7.057-31.535-17.622c-0.214,0.117-0.425,0.238-0.646,0.347l-11.741,5.79c8.826,15.102,25.203,25.275,43.922,25.275
					c18.95,0,35.5-10.427,44.246-25.838L160.913,202.929z"/>
			</g>
		</g>
		<g>
			<g>
				<path fill="#F9D0B4" d="M151.207,187.321v-8.198c-6.957,3.642-14.849,5.716-23.207,5.716h0c-8.358,0-16.25-2.074-23.207-5.716
					v8.198c0,6.38-3.496,12.219-9.061,15.261c6.536,10.565,18.225,17.622,31.535,17.622c13.577,0,25.466-7.344,31.92-18.264
					C154.255,198.763,151.207,193.278,151.207,187.321z"/>
			</g>
		</g>
		<g>
			<g>
				<path fill="#F5C84C" d="M228.856,237.765c-0.484-8.686-6.559-16.048-14.995-18.172l-39.121-9.847l-3.226-1.59
					c-8.746,15.411-25.296,25.838-44.246,25.838c-18.719,0-35.095-10.174-43.922-25.275l-2.085,1.028l-39.121,9.847
					c-8.436,2.124-14.512,9.486-14.995,18.172l-0.716,12.346c-0.107,1.839,1.356,3.389,3.198,3.389h196.748
					c1.842,0,3.305-1.55,3.198-3.389L228.856,237.765z"/>
			</g>
		</g>
		<g>
			<g>
				<path fill="#F5C84C" d="M228.856,237.765c-0.239-4.293-1.849-8.26-4.43-11.434l-17.333,14.173
					c-4.137,3.382-7.05,7.945-8.425,12.996h27.706c1.842,0,3.305-1.55,3.198-3.389L228.856,237.765z"/>
			</g>
		</g>
		<g>
			<g>
				<path fill="#F5C84C" d="M48.906,240.504l-17.333-14.173c-2.581,3.174-4.19,7.141-4.43,11.434l-0.716,12.346
					c-0.107,1.839,1.356,3.389,3.198,3.389h27.706C55.956,248.449,53.044,243.887,48.906,240.504z"/>
			</g>
		</g>
		<g>
			<g>
				<path fill="#FCA265" d="M83.346,208.718l-2.085,1.028l-39.121,9.847c-4.266,1.074-7.925,3.491-10.566,6.738l17.333,14.173
					c4.137,3.382,7.049,7.945,8.422,12.996h3.105l0.201-0.439c5.541-12.09,15.979-21.24,28.69-25.151l9.229-2.84
					C92.362,220.812,87.15,215.227,83.346,208.718z"/>
			</g>
		</g>
		<g>
			<g>
				<path fill="#FCA265" d="M213.861,219.593l-39.121-9.847l-3.226-1.59c-3.74,6.59-8.916,12.258-15.088,16.6l10.25,3.154
					c12.711,3.911,23.149,13.061,28.69,25.151l0.201,0.439h3.105c1.374-5.051,4.285-9.613,8.422-12.996l17.31-14.155
					C221.764,223.102,218.127,220.667,213.861,219.593z"/>
			</g>
		</g>
		<g>
			<g>
				<path d="M97.925,201.381c-0.662-1.211-2.184-1.654-3.394-0.991l-0.16,0.088c-0.127,0.071-0.254,0.143-0.39,0.209l-11.741,5.789
					c-1.238,0.61-1.747,2.109-1.137,3.348c0.436,0.883,1.322,1.396,2.244,1.396c0.371,0,0.748-0.083,1.104-0.259l11.738-5.787
					c0.206-0.102,0.405-0.211,0.604-0.321l0.14-0.077C98.145,204.111,98.588,202.592,97.925,201.381z"/>
			</g>
		</g>
		<g>
			<g>
				<path d="M172.619,205.913l-10.6-5.227c-0.47-0.231-0.952-0.508-1.477-0.847c-1.158-0.747-2.706-0.415-3.456,0.745
					c-0.749,1.16-0.415,2.707,0.745,3.456c0.687,0.443,1.332,0.813,1.976,1.13l10.601,5.227c0.355,0.176,0.732,0.259,1.104,0.259
					c0.922,0,1.809-0.513,2.244-1.396C174.366,208.022,173.857,206.523,172.619,205.913z"/>
			</g>
		</g>
		<g>
			<g>
				<path d="M160.541,199.839c-4.279-2.757-6.834-7.437-6.834-12.518v-7.446c0-1.381-1.119-2.5-2.5-2.5s-2.5,1.119-2.5,2.5v7.446
					c0,5.952,2.622,11.49,7.12,15.246c-6.413,9.39-17.158,15.137-28.56,15.137c-11.227,0-21.538-5.336-28.044-14.392
					c5.034-3.72,8.069-9.632,8.069-15.991v-7.508c0-1.381-1.119-2.5-2.5-2.5s-2.5,1.119-2.5,2.5v7.508
					c0,5.444-2.974,10.452-7.76,13.066c-0.602,0.33-1.042,0.892-1.218,1.556s-0.07,1.37,0.291,1.954
					c7.285,11.776,19.869,18.807,33.661,18.807c13.91,0,26.966-7.469,34.072-19.491
					C162.023,202.056,161.671,200.566,160.541,199.839z"/>
			</g>
		</g>
		<g>
			<g>
				<g>
					<g>
						<path d="M232.068,249.967l-0.717-12.341c-0.547-9.832-7.331-18.054-16.881-20.458l-38.863-9.781l-2.988-1.473
							c-1.193-0.588-2.627-0.143-3.279,1.008c-8.603,15.156-24.724,24.571-42.072,24.571c-17.096,0-33.098-9.21-41.764-24.037
							c-0.66-1.132-2.085-1.56-3.264-0.98l-1.848,0.911l-38.863,9.781c-9.55,2.404-16.334,10.626-16.881,20.452l-0.717,12.347
							c-0.09,1.561,0.474,3.107,1.547,4.244c1.072,1.137,2.584,1.789,4.147,1.789h196.748c1.563,0,3.075-0.652,4.147-1.789
							C231.595,253.074,232.158,251.527,232.068,249.967z M226.886,250.779c-0.095,0.101-0.261,0.221-0.512,0.221H29.626
							c-0.251,0-0.417-0.12-0.512-0.221s-0.205-0.273-0.19-0.523l0.717-12.353c0.425-7.635,5.693-14.02,13.109-15.886l39.12-9.847
							c0.171-0.044,0.337-0.104,0.495-0.183l0.043-0.021c9.793,15.187,26.771,24.526,44.859,24.526
							c18.358,0,35.469-9.55,45.21-25.075l1.157,0.57c0.158,0.078,0.324,0.14,0.495,0.183l39.12,9.847
							c7.416,1.866,12.685,8.251,13.109,15.892l0.717,12.347C227.091,250.506,226.98,250.679,226.886,250.779z"/>
					</g>
				</g>
			</g>
		</g>
		<g>
			<g>
				<path d="M59.469,251.906c-1.628-5.254-4.733-9.866-8.979-13.338l-16.873-13.798c-1.068-0.873-2.645-0.715-3.519,0.353
					c-0.874,1.069-0.716,2.645,0.353,3.519l16.874,13.798c3.483,2.849,6.032,6.634,7.369,10.947c0.332,1.072,1.32,1.761,2.387,1.761
					c0.245,0,0.495-0.037,0.741-0.113C59.14,254.626,59.878,253.226,59.469,251.906z"/>
			</g>
		</g>
		<g>
			<g>
				<path d="M100.114,224.59c-0.406-1.319-1.804-2.062-3.125-1.654l-8.399,2.584c-13.377,4.116-24.395,13.775-30.228,26.499
					c-0.575,1.255-0.024,2.739,1.23,3.314c0.338,0.155,0.691,0.229,1.04,0.229c0.947,0,1.854-0.542,2.274-1.459
					c5.239-11.431,15.137-20.106,27.153-23.804l8.399-2.584C99.779,227.309,100.521,225.91,100.114,224.59z"/>
			</g>
		</g>
		<g>
			<g>
				<path d="M197.343,251.387c-5.897-12.399-16.808-21.828-29.933-25.867l-9.367-2.882c-1.317-0.403-2.719,0.334-3.125,1.654
					s0.335,2.719,1.654,3.125l9.367,2.882c11.79,3.628,21.59,12.097,26.888,23.236c0.429,0.899,1.325,1.427,2.26,1.427
					c0.359,0,0.726-0.078,1.072-0.243C197.405,254.126,197.936,252.634,197.343,251.387z"/>
			</g>
		</g>
		<g>
			<g>
				<path d="M225.95,225.084c-0.874-1.067-2.449-1.227-3.519-0.353l-16.921,13.837c-4.152,3.396-7.222,7.896-8.876,13.012
					c-0.425,1.313,0.296,2.723,1.61,3.147c0.255,0.082,0.515,0.122,0.77,0.122c1.055,0,2.036-0.674,2.378-1.732
					c1.357-4.199,3.876-7.892,7.284-10.678l16.921-13.837C226.666,227.729,226.824,226.153,225.95,225.084z"/>
			</g>
		</g>
		<g>
			<g>
				<path fill="#70D6F9" d="M61.2,181.9h-2.3v-2.3c0-1.7-1.4-3.2-3.2-3.2s-3.2,1.4-3.2,3.2v2.3h-2.3c-1.7,0-3.2,1.4-3.2,3.2
					c0,1.8,1.4,3.2,3.2,3.2h2.3v2.3c0,1.7,1.4,3.2,3.2,3.2s3.2-1.4,3.2-3.2v-2.3h2.3c1.7,0,3.2-1.4,3.2-3.2
					C64.4,183.3,63,181.9,61.2,181.9z"/>
			</g>
		</g>
		<g>
			<g>
				<path fill="#FC657E" d="M207.8,20.85c-4.5-0.8-8-4.3-8.9-8.7c0-0.2-0.4-0.2-0.4,0c-0.9,4.4-4.4,7.9-8.9,8.7
					c-0.2,0-0.2,0.3,0,0.4c4.5,0.8,8,4.3,8.9,8.7c0,0.2,0.4,0.2,0.4,0c0.9-4.4,4.4-7.9,8.9-8.7C208,21.15,208,20.85,207.8,20.85z"/>
			</g>
		</g>
		<g>
			<g>
				<path fill="#F5C84C" d="M46.853,67.921c-2.907-0.517-5.168-2.778-5.749-5.62c0-0.129-0.258-0.129-0.258,0
					c-0.581,2.842-2.842,5.103-5.749,5.62c-0.129,0-0.129,0.194,0,0.258c2.907,0.517,5.168,2.777,5.749,5.62
					c0,0.129,0.258,0.129,0.258,0c0.581-2.842,2.842-5.103,5.749-5.62C46.982,68.115,46.982,67.921,46.853,67.921z"/>
			</g>
		</g>
		<g>
			<g>
				<path fill="#70D6F9" d="M178.8,0c-1.878,0-3.4,1.522-3.4,3.4c0,1.878,1.522,3.4,3.4,3.4c1.878,0,3.4-1.522,3.4-3.4
					C182.2,1.522,180.678,0,178.8,0z"/>
			</g>
		</g>
		<g>
			<g>
				<path fill="#FC657E" d="M31.8,198.5c-1.878,0-3.4,1.522-3.4,3.4c0,1.878,1.522,3.4,3.4,3.4c1.878,0,3.4-1.522,3.4-3.4
					C35.2,200.022,33.678,198.5,31.8,198.5z"/>
			</g>
		</g>
		<g>
			<g>
				<path fill="#87D147" d="M184.8,161.5c-1.878,0-3.4,1.522-3.4,3.4c0,1.878,1.522,3.4,3.4,3.4c1.878,0,3.4-1.522,3.4-3.4
					C188.2,163.022,186.678,161.5,184.8,161.5z"/>
			</g>
		</g>
		<g>
			<g>
				<path fill="#F9D0B4" d="M178.365,88.806c-0.028-1.429-1.172-2.606-2.601-2.648c-20.927-0.614-31.953-8.907-36.189-13.061
					c-1.157-1.134-3.024-1.014-4.032,0.253c-18.399,23.138-45.54,19.873-54.666,17.963c-1.658-0.347-3.249,0.903-3.251,2.597v40.556
					c0,27.705,22.668,50.373,50.373,50.373h0c27.705,0,50.373-22.668,50.373-50.373V89.593
					C178.373,89.33,178.37,89.067,178.365,88.806z"/>
			</g>
		</g>
		<g>
			<g>
				<path d="M144.67,144.5c-1.056-0.886-2.635-0.749-3.521,0.311c-2.601,3.102-6.986,4.954-11.732,4.954s-9.132-1.852-11.731-4.954
					c-0.886-1.058-2.464-1.197-3.521-0.311c-1.059,0.887-1.197,2.463-0.311,3.521c3.537,4.223,9.355,6.743,15.563,6.743
					c6.207,0,12.025-2.521,15.564-6.743C145.867,146.964,145.729,145.387,144.67,144.5z"/>
			</g>
		</g>
		<g>
			<g>
				<path d="M149.186,114.017c-3.364,0-6.091,2.727-6.091,6.091c0,3.364,2.727,6.091,6.091,6.091s6.091-2.727,6.091-6.091
					C155.277,116.744,152.55,114.017,149.186,114.017z"/>
			</g>
		</g>
		<g>
			<g>
				<path d="M108.279,114.017c-3.364,0-6.091,2.727-6.091,6.091c0,3.364,2.727,6.091,6.091,6.091s6.091-2.727,6.091-6.091
					C114.37,116.744,111.643,114.017,108.279,114.017z"/>
			</g>
		</g>
		<g>
			<g>
				<g>
					<g>
						<path d="M180.864,88.756c-0.055-2.777-2.263-5.017-5.026-5.098c-20.391-0.598-30.929-8.833-34.512-12.345
							c-1.056-1.036-2.512-1.581-3.972-1.485c-1.473,0.09-2.846,0.808-3.768,1.967c-17.226,21.66-42.242,19.155-52.196,17.071
							c-1.541-0.317-3.13,0.063-4.357,1.057c-1.211,0.982-1.905,2.436-1.906,4.021v40.521c0,29.154,23.719,52.873,52.873,52.873
							s52.873-23.719,52.873-52.873V89.594C180.873,89.314,180.87,89.036,180.864,88.756z M175.873,134.466
							c0,26.397-21.476,47.873-47.873,47.873s-47.873-21.476-47.873-47.873V93.911c0-0.021,0-0.06,0.057-0.106
							c0.03-0.023,0.075-0.049,0.136-0.049c0.015,0,0.03,0.001,0.047,0.005c8.475,1.773,37.646,5.654,57.135-18.854
							c0.016-0.021,0.065-0.082,0.161-0.088c0.08-0.006,0.132,0.034,0.163,0.064c4.974,4.875,16.507,13.147,37.866,13.773
							c0.089,0.003,0.172,0.098,0.174,0.196c0.005,0.246,0.008,0.493,0.008,0.741V134.466z"/>
					</g>
				</g>
			</g>
		</g>
		<g>
			<g>
				<g>
					<g>
						<path d="M192.469,82h-6.191c-5.737,0-10.404,4.667-10.404,10.404v47.191c0,5.737,4.667,10.404,10.404,10.404h6.191
							c5.737,0,10.404-4.667,10.404-10.404V92.404C202.873,86.667,198.206,82,192.469,82z M197.873,139.596
							c0,2.979-2.425,5.404-5.404,5.404h-6.191c-2.979,0-5.404-2.425-5.404-5.404V92.404c0-2.979,2.425-5.404,5.404-5.404h6.191
							c2.979,0,5.404,2.425,5.404,5.404V139.596z"/>
					</g>
				</g>
			</g>
		</g>
		<g>
			<g>
				<path d="M205.114,86.219h-4.741c-1.381,0-2.5,1.119-2.5,2.5s1.119,2.5,2.5,2.5h4.741c1.161,0,2.105,0.944,2.105,2.105v45.353
					c0,1.16-0.944,2.104-2.105,2.104h-4.989c-1.381,0-2.5,1.119-2.5,2.5s1.119,2.5,2.5,2.5h4.989c3.918,0,7.105-3.188,7.105-7.104
					V93.324C212.22,89.406,209.032,86.219,205.114,86.219z"/>
			</g>
		</g>
		<g>
			<g>
				<g>
					<g>
						<path d="M69.723,82h-6.191c-5.737,0-10.404,4.667-10.404,10.404v47.19c0,5.737,4.667,10.405,10.404,10.405h6.191
							c5.737,0,10.404-4.667,10.404-10.404v-47.19C80.127,86.668,75.46,82,69.723,82z M75.127,139.596
							c0,2.979-2.425,5.404-5.404,5.404h-6.191c-2.979,0-5.404-2.425-5.404-5.405v-47.19c0-2.979,2.425-5.404,5.404-5.404h6.191
							c2.979,0,5.404,2.425,5.404,5.405V139.596z"/>
					</g>
				</g>
			</g>
		</g>
		<g>
			<g>
				<path d="M55.917,140.781h-5.031c-1.161,0-2.105-0.944-2.105-2.104V93.324c0-1.161,0.944-2.105,2.105-2.105h4.741
					c1.381,0,2.5-1.119,2.5-2.5s-1.119-2.5-2.5-2.5h-4.741c-3.918,0-7.105,3.188-7.105,7.105v45.353
					c0,3.917,3.188,7.104,7.105,7.104h5.031c1.381,0,2.5-1.119,2.5-2.5S57.298,140.781,55.917,140.781z"/>
			</g>
		</g>
		<g>
			<g>
				<g>
					<path d="M128,22.41c-32.623,0-59.164,26.541-59.164,59.164v2.521c0,1.381,1.119,2.5,2.5,2.5s2.5-1.119,2.5-2.5v-2.521
						c0-29.866,24.298-54.164,54.164-54.164s54.164,24.298,54.164,54.164v2.363c0,1.381,1.119,2.5,2.5,2.5s2.5-1.119,2.5-2.5v-2.363
						C187.164,48.951,160.623,22.41,128,22.41z"/>
				</g>
			</g>
			<g>
				<g>
					<path d="M128,7.441c-40.878,0-74.134,33.256-74.134,74.133v7.145c0,1.381,1.119,2.5,2.5,2.5s2.5-1.119,2.5-2.5v-7.145
						c0-38.12,31.014-69.133,69.134-69.133s69.134,31.013,69.134,69.133v7.145c0,1.381,1.119,2.5,2.5,2.5s2.5-1.119,2.5-2.5v-7.145
						C202.134,40.697,168.878,7.441,128,7.441z"/>
				</g>
			</g>
		</g>
	</g>
</g>
<g id="Layer_75">
</g>
</svg>
