<?xml version="1.0" encoding="utf-8"?>
<!-- Generator: Adobe Illustrator 16.0.0, SVG Export Plug-In . SVG Version: 6.00 Build 0)  -->
<!DOCTYPE svg PUBLIC "-//W3C//DTD SVG 1.1//EN" "http://www.w3.org/Graphics/SVG/1.1/DTD/svg11.dtd">
<svg version="1.1" id="Astronaut_1_" xmlns="http://www.w3.org/2000/svg" xmlns:xlink="http://www.w3.org/1999/xlink" x="0px"
	 y="0px" width="512px" height="512px" viewBox="0 0 512 512" enable-background="new 0 0 512 512" xml:space="preserve">
<circle id="Background_11_" fill="#1B9BAA" cx="256" cy="256" r="256"/>
<path id="Shadow" opacity="0.1" d="M512,256c0-3.744-0.098-7.464-0.257-11.168l-160.46-160.46h-95.091v427.626
	C397.489,511.894,512,397.321,512,256z"/>
<g id="Astronaut">
	<path fill="#CFD1D2" d="M359.577,234.978c0,34.421-27.904,62.325-62.325,62.325h-84.761c-34.421,0-62.325-27.903-62.325-62.325
		V195.09c0-34.421,27.904-62.325,62.325-62.325h84.761c34.421,0,62.325,27.904,62.325,62.325V234.978z"/>
	<path fill="#CFD1D2" d="M362.463,277H149.537c-26.443,0-47.879,17.411-47.879,38.889v144.206
		C144.604,492.663,198.137,512,256.192,512c57.881,0,111.269-19.219,154.149-51.609V315.889
		C410.342,294.411,388.905,277,362.463,277z"/>
	<path fill="#FFD0AE" d="M349.846,360.184c-74.442,0-57.834-36.507-62.885-73.06h-61.693c-5.05,36.553,11.558,73.06-62.884,73.06
		c-47.574,0-63.807,20.847-63.807,66.709v30.9C142.018,491.754,196.7,512,256.115,512s114.097-20.245,157.538-54.207v-30.9
		C413.652,381.03,397.419,360.184,349.846,360.184z"/>
	<path opacity="0.1" d="M288.31,308.324c-0.162-6.264-0.377-12.73-1.271-19.2h-61.694c-0.89,6.439-1.107,12.877-1.269,19.114
		c8.927,5.721,19.539,9.159,32.185,9.159C268.842,317.397,279.411,313.993,288.31,308.324z"/>
	<ellipse fill="#FFD0AE" cx="181.38" cy="223.44" rx="13.799" ry="16.269"/>
	<ellipse fill="#FFD0AE" cx="331.143" cy="223.44" rx="13.799" ry="16.269"/>
	<path fill="#FFD0AE" d="M269.983,106.669h-27.445c-36.089,0-65.346,42.325-65.346,78.415c0,0,2.113,126.77,79.068,126.77
		s79.068-126.77,79.068-126.77C335.329,148.994,306.073,106.669,269.983,106.669z"/>
	<path fill="#7F7760" d="M175.029,209.453c-11.648-17.49-25.132-125.358,40.549-122.576
		c57.978-49.658,162.367,16.564,122.894,122.576l-7.457,4.695c7.178-20.148-3.636-68.778-12.394-64.235
		C272.192,174,256.192,129,215.578,131.287c-25.903,10.825-29.094,34.405-32.206,50.626c-3.112,16.222-0.886,32.235-0.886,32.235
		L175.029,209.453z"/>
	<path opacity="0.1" d="M318.621,149.913C272.192,174,256.192,129,215.578,131.287c-25.903,10.825-29.094,34.405-32.206,50.626
		c-1.739,9.066-1.811,18.065-1.536,24.242c0.194-4.235,0.646-8.855,1.536-13.494c3.112-16.221,6.303-39.801,32.206-50.626
		c40.614-2.287,56.614,42.713,103.043,18.626c6.203-3.217,13.435,20.237,14.577,41.355
		C334.627,179.207,325.913,146.131,318.621,149.913z"/>
	<path fill="#EFF0F0" d="M334.308,332.77L256,341.651l-78.309-8.882c-87.136,0-90.706,62.299-90.852,115.189
		C131.972,487.807,191.252,512,256.192,512c64.755,0,123.884-24.055,168.969-63.699C425.028,395.337,421.632,332.77,334.308,332.77z
		"/>
	<rect x="253.012" y="355.155" opacity="0.1" width="5.976" height="70.845"/>
	<path fill="#EFF0F0" d="M254.872,56.522c-114.679,0-147.625,76.094-147.625,157.625c0,81.531,66.094,147.625,147.625,147.625
		c81.531,0,147.625-66.095,147.625-147.625C402.496,132.617,369.551,56.522,254.872,56.522z M351.577,233.454
		c0,31.791-25.772,57.563-57.563,57.563h-78.285c-31.792,0-57.563-25.771-57.563-57.563v-36.84
		c0-31.791,25.771-57.563,57.563-57.563h78.285c31.791,0,57.563,25.772,57.563,57.563V233.454z"/>
	<path opacity="0.1" d="M359.577,234.978c0,34.421-27.904,62.325-62.325,62.325h-84.761c-34.421,0-62.325-27.903-62.325-62.325
		V195.09c0-34.421,27.904-62.325,62.325-62.325h84.761c34.421,0,62.325,27.904,62.325,62.325V234.978z"/>
	<path fill="#BC1E2D" d="M255.192,354.124c-42.408,0-79.619-12.549-100.615-31.426v12.873C175.576,354.448,212.784,367,255.192,367
		c42.408,0,79.616-12.552,100.614-31.429v-12.873C334.811,341.575,297.6,354.124,255.192,354.124z"/>
	<path opacity="0.1" d="M154.577,322.698v3.029c20.999,18.877,58.207,31.428,100.615,31.428c42.408,0,79.616-12.551,100.614-31.428
		v-3.029c-20.996,18.877-58.207,31.426-100.614,31.426C212.785,354.124,175.574,341.575,154.577,322.698z"/>
	<path fill="#BABCBE" d="M342.556,497.059V415H169.444v81.92c27.088,9.76,56.295,15.08,86.748,15.08
		C286.5,512,315.575,506.729,342.556,497.059z"/>
	<circle fill="#BC1E2D" cx="213.872" cy="465.156" r="30.156"/>
	<rect x="195.115" y="408" fill="#A5A7AA" width="37.514" height="7"/>
	<rect x="267.279" y="411.281" fill="#A5A7AA" width="21.102" height="3.938"/>
	<rect x="293.279" y="411.281" fill="#A5A7AA" width="28.413" height="3.938"/>
	<rect x="254.829" y="430.5" opacity="0.1" width="2.342" height="64.813"/>
</g>
</svg>
