<svg xmlns="http://www.w3.org/2000/svg" viewBox="0 0 512 512"><title>Artboard 107</title><g id="Young_Man" data-name="Young Man"><rect x="341.33333" y="192" width="42.66667" height="64" rx="21.33331" ry="21.33331" style="fill:#cb7956"/><rect x="128" y="192" width="42.66667" height="64" rx="21.33331" ry="21.33331" style="fill:#e29971"/><path d="M192,277.33333v64a21.33334,21.33334,0,0,1-21.33333,21.33334h-64A85.33333,85.33333,0,0,0,21.33333,448v42.66667H490.66667V448a85.33333,85.33333,0,0,0-85.33334-85.33333h-64A21.33334,21.33334,0,0,1,320,341.33333v-64Z" style="fill:#e29971"/><rect x="149.33333" y="405.33333" width="85.33333" height="42.66667" rx="21.33331" ry="21.33331" style="fill:#edbda4"/><circle cx="213.33333" cy="426.66667" r="21.33333" style="fill:#f5d9cb"/><path d="M341.33333,362.66667A21.33356,21.33356,0,0,1,320,341.33333v-64H256v85.33334h21.33333V384H234.66667v21.33333a21.33333,21.33333,0,1,0,42.66666,0h85.33334V362.66667Z" style="fill:#cb7956"/><rect x="149.33333" y="42.66667" width="213.33333" height="298.66656" rx="106.66656" ry="106.66656" style="fill:#edbda4"/><path d="M320,64.48307v84.85026H277.33333v21.33334H320v42.66659a21.33333,21.33333,0,0,1,21.33333,21.33333v.00008A21.33333,21.33333,0,0,1,320,256H256v64h21.33333v19.18359a106.69065,106.69065,0,0,0,85.33334-104.51692V149.33333C362.66667,114.54948,345.76562,83.95443,320,64.48307Z" style="fill:#e29971"/><polygon points="234.667 234.667 234.667 256 277.333 256 277.333 192 320 192 320 170.667 256 170.667 256 234.667 234.667 234.667" style="fill:#cb7956"/><rect x="298.66667" y="192" width="21.33333" height="21.33333" style="fill:#4c2c1a"/><rect x="192" y="192" width="21.33333" height="21.33333" style="fill:#4c2c1a"/><rect x="234.66667" y="277.33333" width="42.66667" height="21.33333" style="fill:#ce464d"/><path d="M405.33333,362.66667h-64a85.33333,85.33333,0,1,1-170.66666,0h-64A85.33255,85.33255,0,0,0,21.33333,448v42.66667H490.66667V448A85.33255,85.33255,0,0,0,405.33333,362.66667Z" style="fill:#224552"/><path d="M64,490.66667H42.66667V448a64.07,64.07,0,0,1,64-64v21.33333A42.71555,42.71555,0,0,0,64,448Z" style="fill:#4c6a74"/><path d="M192,85.33333S192,128,256,128c0,0,0-21.33333,21.33333-21.33333S298.66667,128,341.33333,128v85.33331h21.33334l0-21.33331S384,192,384,170.66667V128c0-85.33333-85.33333-106.66667-128-106.66667-21.33333,0-85.33333,0-85.33333,42.66667,0,0-42.66667,0-42.66667,42.66667v64C128,192,149.33333,192,149.33333,192v21.33331h21.33334V106.66667S170.66667,85.33333,192,85.33333Z" style="fill:#552a1f"/><path d="M128,106.66667v64C128,192,149.33333,192,149.33333,192v21.33333h21.33334V106.66667s0-21.33334,21.33333-21.33334L170.66667,64S128,64,128,106.66667Z" style="fill:#8f492b"/><path d="M256,490.66667V469.33333A106.79223,106.79223,0,0,0,362.66667,362.66667H384A128.14,128.14,0,0,1,256,490.66667Z" style="fill:#062d3c"/><rect x="149.33333" y="149.33333" width="21.33333" height="21.33333" style="fill:#cb7956"/><rect x="341.33333" y="149.33333" width="21.33333" height="21.33333" style="fill:#8f492b"/><rect x="149.33333" y="106.66667" width="21.33333" height="21.33333" style="fill:#cb7956"/><path d="M252.35417,106.97917h-6.70834c-28.79166,0-40.83333-21.41667-42.70833-38.29167L195.125,60.875l15.08333-15.08333L224,59.58333V64c.0625,4.48958,1.52083,18.30208,16.04167,21.13542,5.79166-8.15625,17.97916-20.97917,37.29166-20.97917,12.4375,0,21.64584,5.29167,30.52084,10.40625,9.625,5.54167,18.70833,10.77083,33.47916,10.77083h21.33334v21.33334H341.33333c-20.45833,0-33.58333-7.54167-44.10416-13.61459-7.35417-4.21875-13.16667-7.5625-19.89584-7.5625-14.22916,0-22,15.30209-22.08333,15.44792Z" style="fill:#8f492b"/></g></svg>