<?xml version="1.0" encoding="utf-8"?>
<!-- Generator: Adobe Illustrator 16.0.0, SVG Export Plug-In . SVG Version: 6.00 Build 0)  -->
<!DOCTYPE svg PUBLIC "-//W3C//DTD SVG 1.1//EN" "http://www.w3.org/Graphics/SVG/1.1/DTD/svg11.dtd">
<svg version="1.1" id="Pilot_1_" xmlns="http://www.w3.org/2000/svg" xmlns:xlink="http://www.w3.org/1999/xlink" x="0px" y="0px"
	 width="512px" height="512px" viewBox="0 0 512 512" enable-background="new 0 0 512 512" xml:space="preserve">
<circle id="Background_5_" fill="#9ACCB0" cx="256" cy="256" r="256"/>
<path id="Shadow" opacity="0.1" d="M512,256c0-10.432-0.64-20.713-1.853-30.818L363.091,78.125H256V512
	C397.386,512,512,397.386,512,256z"/>
<g id="Pilot">
	<path fill="#FFD0AE" d="M349.73,360.184c-74.441,0-57.833-36.507-62.884-73.06h-61.693c-5.05,36.553,11.558,73.06-62.884,73.06
		c-47.574,0-63.807,20.847-63.807,66.709v30.9C141.903,491.754,196.585,512,256,512c59.415,0,114.097-20.245,157.537-54.207v-30.9
		C413.537,381.03,397.305,360.184,349.73,360.184z"/>
	<path opacity="0.1" d="M288.117,308.324c-0.161-6.264-0.377-12.73-1.271-19.2h-61.693c-0.89,6.439-1.107,12.877-1.269,19.114
		c8.926,5.721,19.539,9.159,32.184,9.159C268.65,317.397,279.22,313.993,288.117,308.324z"/>
	<path fill="#EFF0F0" d="M349.73,360.184c-9.712,0-17.861-0.627-24.725-1.788L256,365.914l-69.006-7.519
		c-6.863,1.161-15.012,1.788-24.724,1.788c-47.574,0-63.807,20.847-63.807,66.709v30.9C141.903,491.754,196.585,512,256,512
		c59.415,0,114.097-20.245,157.537-54.207v-30.9C413.537,381.03,397.305,360.184,349.73,360.184z"/>
	<path fill="#4E668E" d="M287.616,366.371h-63.232l21.896,28.781l-5.858,116.395c4.989,0.289,10.012,0.453,15.074,0.453
		c5.403,0,10.76-0.188,16.08-0.518l-5.855-116.33L287.616,366.371z"/>
	<path fill="#414042" d="M349.73,360.184c-9.712,0-17.861-0.627-24.725-1.788l-68.937,137.271l-69.075-137.271
		c-6.863,1.161-15.012,1.788-24.724,1.788c-47.574,0-63.807,20.847-63.807,66.709v30.9C141.903,491.754,196.585,512,256,512
		c59.415,0,114.097-20.245,157.537-54.207v-30.9C413.537,381.03,397.305,360.184,349.73,360.184z"/>
	<path opacity="0.2" d="M246.28,395.152h19.44c0,0-4.935,1.769-9.72,1.769C251.214,396.921,246.28,395.152,246.28,395.152z"/>
	<polygon fill="#EFF0F0" points="221.48,332.181 216.739,332.181 186.754,358.057 218.936,403.615 256,365.914 	"/>
	<polygon fill="#EFF0F0" points="290.623,332.181 295.261,332.181 325.246,358.057 293.064,403.615 256,365.914 	"/>
	<ellipse fill="#FFD0AE" cx="181.188" cy="223.44" rx="13.799" ry="16.269"/>
	<ellipse fill="#FFD0AE" cx="330.95" cy="223.44" rx="13.799" ry="16.269"/>
	<path fill="#FFD0AE" d="M269.791,106.669h-27.445c-36.089,0-65.345,42.325-65.345,78.415c0,0,2.112,126.77,79.068,126.77
		s79.068-126.77,79.068-126.77C335.137,148.994,305.881,106.669,269.791,106.669z"/>
	<path fill="#998379" d="M337.791,209.313c11.648-17.49,25.132-125.358-40.55-122.576C234.846,45.25,134.317,86.5,174.347,209.313
		l7.458,4.695c0,0-0.972-12.233,4.393-24.235s19.833-22.498,23.893-47.969s76.342,21.036,87.15-10.658
		c7.914,35.468,30.094,42.405,33.206,58.626c3.111,16.222-0.114,24.235-0.114,24.235L337.791,209.313z"/>
	<path opacity="0.1" d="M330.447,189.773c-3.112-16.222-25.292-23.159-33.206-58.626c-10.809,31.694-83.091-14.813-87.15,10.658
		s-18.528,35.967-23.893,47.969c-5.364,12.001-4.393,24.235-4.393,24.235c0.277-4.685,1.29-11.291,4.393-18.235
		c5.365-12.001,19.833-22.498,23.893-47.969s76.342,21.036,87.15-10.658c7.914,35.468,30.094,42.405,33.206,58.626
		c0.74,3.86,1.114,7.239,1.266,10.172C331.94,202.007,331.763,196.633,330.447,189.773z"/>
	<path opacity="0.1" d="M218.936,407.608L256,368.9l37.064,38.708l35.168-48.722l-0.024-0.007c-1.094-0.15-2.167-0.31-3.202-0.484
		l-31.941,45.22L256,365.914l-37.064,37.701l-31.942-45.22c-1.034,0.175-2.108,0.334-3.202,0.484l-0.025,0.007L218.936,407.608z"/>
	<polygon fill="#414042" points="208.443,339.34 162.27,360.184 201.484,395.152 182.15,407.608 256.069,495.667 	"/>
	<polygon fill="#414042" points="303.694,339.34 349.868,360.184 310.654,395.152 329.987,407.608 256.069,495.667 	"/>
	<path opacity="0.1" d="M349.898,360.184l-39.329,34.969l2.604,1.678l40.395-36.595
		C352.362,360.206,351.147,360.184,349.898,360.184z"/>
	<path opacity="0.1" d="M161.904,360.184l39.328,34.969l-2.604,1.678l-40.395-36.595
		C159.439,360.206,160.654,360.184,161.904,360.184z"/>
	<polygon opacity="0.1" points="327.808,410.204 256.069,495.667 184.33,410.204 182.15,411.608 256.069,499.928 329.987,411.608 	
		"/>
	<path fill="#998379" d="M256.069,259.203c-15.783,0-28.578,6.422-28.578,14.344h57.157
		C284.647,265.625,271.853,259.203,256.069,259.203z"/>
	<rect x="317.246" y="450" fill="#FFC940" width="40.237" height="5.066"/>
	<polygon fill="#EFF0F0" points="356.538,80.957 256.069,69.481 155.6,80.957 163.457,118.327 348.681,118.327 	"/>
	<polygon fill="#414042" points="345.062,135.541 348.681,118.327 163.457,118.327 167.076,135.541 	"/>
	<path fill="#414042" d="M167.076,135.541c0,0,46.544,33.854,88.993,33.854s88.993-33.854,88.993-33.854H167.076z"/>
	<polygon fill="#FFC940" points="164.542,123.491 165.99,130.377 346.147,130.377 347.595,123.491 	"/>
	<path fill="#E4E5E6" d="M363.091,78.125c0,4.733-3.837,8.57-8.57,8.57l-98.452-11.476l-98.452,11.476
		c-4.733,0-8.57-3.837-8.57-8.57l0,0c0-4.733,3.837-8.57,8.57-8.57l98.452-11.476l98.452,11.476
		C359.254,69.555,363.091,73.392,363.091,78.125L363.091,78.125z"/>
	<path fill="#FFC940" d="M284.647,95.355h-24.021c-1.13-1.237-2.751-2.018-4.558-2.018s-3.428,0.781-4.559,2.018h-24.02
		c0,4.292,3.471,7.826,23.974,8.277c1.132,1.266,2.772,2.067,4.604,2.067s3.472-0.802,4.604-2.067
		C281.176,103.181,284.647,99.647,284.647,95.355z"/>
</g>
</svg>
