<svg xmlns="http://www.w3.org/2000/svg" viewBox="0 0 512 512"><defs><style>.cls-1{fill:#fcc8bc;}.cls-2{fill:#32314b;}.cls-3{fill:#3e436d;}.cls-4{fill:#a99bd4;}.cls-5{fill:#998fc1;}.cls-6{fill:#d8d3f2;}.cls-7{fill:#c2bae5;}</style></defs><title>Cinema</title><g id="BULINE"><circle class="cls-1" cx="256" cy="256" r="256"/></g><g id="Icons"><path class="cls-2" d="M402.24,255.11a148.52,148.52,0,0,1-1.71,22.46A146.64,146.64,0,1,1,255.61,108.48a143.41,143.41,0,0,1,19.89,1.36A146.62,146.62,0,0,1,402.24,255.11Z"/><path class="cls-3" d="M402.24,255.11a148.52,148.52,0,0,1-1.71,22.46,146.76,146.76,0,0,1-125-167.73A146.62,146.62,0,0,1,402.24,255.11Z"/><path class="cls-4" d="M255.61,34.54C133.8,34.54,35,133.3,35,255.11S133.8,475.68,255.61,475.68s220.57-98.75,220.57-220.57S377.43,34.54,255.61,34.54Zm75.2,34.88a56.4,56.4,0,1,1-56.4,56.39A56.39,56.39,0,0,1,330.81,69.42ZM290.7,240.7a14.41,14.41,0,1,1-14.41,14.41A14.42,14.42,0,0,1,290.7,240.7Zm-16.91-3.13a14.42,14.42,0,1,1,14.41-14.42A14.43,14.43,0,0,1,273.79,237.57Zm0,35.09a14.41,14.41,0,1,1-14.42,14.41A14.41,14.41,0,0,1,273.79,272.66Zm-52.64-3.14a14.41,14.41,0,1,1,14.41-14.41A14.41,14.41,0,0,1,221.15,269.52Zm16.92,3.14a14.41,14.41,0,1,1-14.41,14.41A14.41,14.41,0,0,1,238.07,272.66Zm0-35.09a14.42,14.42,0,1,1,14.41-14.42A14.42,14.42,0,0,1,238.07,237.57ZM185.43,69.42A56.4,56.4,0,1,1,129,125.81,56.4,56.4,0,0,1,185.43,69.42ZM58.86,255.11a56.4,56.4,0,1,1,56.39,56.4A56.39,56.39,0,0,1,58.86,255.11ZM185.43,440a56.4,56.4,0,1,1,56.4-56.39A56.39,56.39,0,0,1,185.43,440Zm145.38,0a56.4,56.4,0,1,1,56.39-56.39A56.4,56.4,0,0,1,330.81,440Zm66.42-128.45a56.4,56.4,0,1,1,56.4-56.4A56.41,56.41,0,0,1,397.23,311.51Z"/><path class="cls-5" d="M129.22,388.22a219.52,219.52,0,0,1-38.83-82.48,56.42,56.42,0,0,1,0-101.26,219.69,219.69,0,0,1,38.77-82.39,56.4,56.4,0,0,1,56.27-52.67h.6a219.32,219.32,0,0,1,94.33-33.5,219.69,219.69,0,0,0-24.75-1.38C133.8,34.54,35,133.3,35,255.11S133.8,475.68,255.61,475.68a219.69,219.69,0,0,0,24.75-1.38A219.22,219.22,0,0,1,184.73,440,56.42,56.42,0,0,1,129.22,388.22Z"/><path class="cls-5" d="M255.61,198.72A56.4,56.4,0,1,0,312,255.11,56.39,56.39,0,0,0,255.61,198.72Zm-48.87,56.39a14.41,14.41,0,1,1,14.41,14.41A14.41,14.41,0,0,1,206.74,255.11Zm31.33,46.37a14.41,14.41,0,1,1,14.41-14.41A14.41,14.41,0,0,1,238.07,301.48Zm0-63.91a14.42,14.42,0,1,1,14.41-14.42A14.42,14.42,0,0,1,238.07,237.57Zm35.72-28.83a14.42,14.42,0,1,1-14.42,14.41A14.42,14.42,0,0,1,273.79,208.74Zm0,92.74a14.41,14.41,0,1,1,14.41-14.41A14.42,14.42,0,0,1,273.79,301.48Zm16.91-32a14.41,14.41,0,1,1,14.42-14.41A14.41,14.41,0,0,1,290.7,269.52Z"/><circle class="cls-6" cx="255.61" cy="255.11" r="13.79"/><circle class="cls-7" cx="427.12" cy="161.94" r="12.48"/><circle class="cls-7" cx="411.84" cy="140.9" r="8.84"/></g></svg>