<svg xmlns="http://www.w3.org/2000/svg" viewBox="0 0 512 512"><defs><style>.cls-1{fill:#a99bd4;}.cls-2{fill:#4f4f74;}.cls-3{fill:#3e436d;}.cls-4{fill:#f6d372;}.cls-5{fill:#f6c752;}.cls-6{fill:#fcc8bc;}.cls-7{fill:#fab3a7;}.cls-8{fill:#626289;}.cls-9{fill:#fff;}</style></defs><title>Cinema</title><g id="BULINE"><circle class="cls-1" cx="256" cy="256" r="256"/></g><g id="Icons"><rect class="cls-2" x="75.9" y="75.9" width="361" height="361" rx="13.92"/><path class="cls-3" d="M436.9,368.9V423A13.92,13.92,0,0,1,423,436.9H89.82A13.92,13.92,0,0,1,75.9,423V89.82A13.92,13.92,0,0,1,89.82,75.9H129.9V355a13.92,13.92,0,0,0,13.92,13.92Z"/><path class="cls-4" d="M259.53,99.12l37.31,114.82a3.28,3.28,0,0,0,3.13,2.27H420.7a3.29,3.29,0,0,1,1.93,5.95l-97.67,71a3.29,3.29,0,0,0-1.2,3.67l37.31,114.83A3.28,3.28,0,0,1,356,415.3l-97.67-71a3.29,3.29,0,0,0-3.87,0l-97.67,71a3.29,3.29,0,0,1-5.07-3.67L189,296.8a3.28,3.28,0,0,0-1.19-3.67l-97.68-71a3.29,3.29,0,0,1,1.94-5.95H212.84a3.29,3.29,0,0,0,3.13-2.27L253.28,99.12A3.28,3.28,0,0,1,259.53,99.12Z"/><path class="cls-5" d="M220.67,368.9l-63.88,46.41a3.29,3.29,0,0,1-5.06-3.68l13.88-42.73Z"/><path class="cls-5" d="M356,415.31,292.13,368.9h55.06l13.88,42.73A3.29,3.29,0,0,1,356,415.31Z"/><path class="cls-5" d="M92.1,216.22h37.8V251L90.17,222.17A3.29,3.29,0,0,1,92.1,216.22Z"/><path class="cls-6" d="M259.18,117l33.06,101.76a2.91,2.91,0,0,0,2.77,2H402a2.92,2.92,0,0,1,1.72,5.28L317.16,289a2.92,2.92,0,0,0-1.06,3.26L349.17,394a2.92,2.92,0,0,1-4.49,3.26l-86.56-62.89a2.93,2.93,0,0,0-3.43,0l-86.57,62.89a2.91,2.91,0,0,1-4.48-3.26L196.7,292.21a2.91,2.91,0,0,0-1-3.26l-86.57-62.89a2.92,2.92,0,0,1,1.71-5.28h107a2.92,2.92,0,0,0,2.78-2L253.63,117A2.92,2.92,0,0,1,259.18,117Z"/><path class="cls-7" d="M171.79,368.9h35.33l-39,28.34a2.91,2.91,0,0,1-4.48-3.26Z"/><path class="cls-7" d="M344.68,397.24l-39-28.34H341L349.16,394A2.91,2.91,0,0,1,344.68,397.24Z"/><path class="cls-7" d="M110.79,220.79H129.9v20.4l-20.82-15.13A2.91,2.91,0,0,1,110.79,220.79Z"/><circle class="cls-8" cx="393.37" cy="161.31" r="15.5"/><circle class="cls-8" cx="393.37" cy="129.02" r="10.98"/><circle class="cls-9" cx="256.4" cy="294.14" r="35.73"/><circle class="cls-2" cx="256.4" cy="294.14" r="31"/><path class="cls-3" d="M261.74,324.69a31.37,31.37,0,0,1-5.34.46,31,31,0,1,1,0-62,31.37,31.37,0,0,1,5.34.46,31,31,0,0,0,0,61.08Z"/><path class="cls-9" d="M276.92,295.56l-6.81,2.62v-1a11.83,11.83,0,1,0-14.46-18.08,11.83,11.83,0,1,0-14.46,18.08V308.5a2.14,2.14,0,0,0,2.14,2.14H268a2.14,2.14,0,0,0,2.14-2.14v-1.9l6.81,2.63a1.49,1.49,0,0,0,2-1.39V297A1.48,1.48,0,0,0,276.92,295.56Z"/></g></svg>