<svg xmlns="http://www.w3.org/2000/svg" viewBox="0 0 512 512"><defs><style>.cls-1{fill:#27273d;}.cls-2{fill:#db1b1b;}.cls-3{fill:#c61a1a;}.cls-4{fill:#f6c752;}.cls-5{fill:#3e436d;}.cls-6{fill:#32314b;}.cls-7{fill:#bf1b1b;}.cls-8{fill:#f7bb38;}.cls-9{fill:#f9e5b4;}.cls-10{fill:#f6d372;}</style></defs><title>Cinema</title><g id="BULINE"><circle class="cls-1" cx="256" cy="256" r="256"/></g><g id="Icons"><rect class="cls-2" x="82.99" y="73" width="173.01" height="368.37"/><rect class="cls-3" x="82.99" y="73" width="26.28" height="368.38"/><circle class="cls-4" cx="169.5" cy="204.03" r="43.25"/><circle class="cls-5" cx="169.5" cy="204.03" r="34.31"/><path class="cls-6" d="M178.8,237.06a34.31,34.31,0,1,1,0-66.05,34.31,34.31,0,0,0,0,66.05Z"/><rect class="cls-4" x="82.99" y="379.42" width="173.01" height="61.96"/><circle class="cls-7" cx="108.43" cy="299.71" r="5.54"/><path class="cls-7" d="M114.17,294a2,2,0,0,1,0-2.8l6-6A2,2,0,1,1,123,288l-6,6A2,2,0,0,1,114.17,294Z"/><path class="cls-7" d="M94.14,314a2,2,0,0,1,0-2.81l6-6A2,2,0,0,1,103,308l-6,6A2,2,0,0,1,94.14,314Z"/><path class="cls-7" d="M120.19,314l-6-6a2,2,0,0,1,2.8-2.8l6,6a2,2,0,1,1-2.8,2.81Z"/><path class="cls-7" d="M100.16,294l-6-6a2,2,0,1,1,2.8-2.8l6,6a2,2,0,1,1-2.81,2.8Z"/><circle class="cls-7" cx="169.36" cy="299.71" r="5.54"/><path class="cls-7" d="M175.1,294a2,2,0,0,1,0-2.8l6-6a2,2,0,1,1,2.8,2.8l-6,6A2,2,0,0,1,175.1,294Z"/><path class="cls-7" d="M155.07,314a2,2,0,0,1,0-2.81l6-6a2,2,0,0,1,2.8,2.8l-6,6A2,2,0,0,1,155.07,314Z"/><path class="cls-7" d="M181.12,314l-6-6a2,2,0,0,1,2.8-2.8l6,6a2,2,0,1,1-2.8,2.81Z"/><path class="cls-7" d="M161.09,294l-6-6a2,2,0,1,1,2.8-2.8l6,6a2,2,0,1,1-2.8,2.8Z"/><circle class="cls-7" cx="230.28" cy="299.71" r="5.54"/><path class="cls-7" d="M236,294a2,2,0,0,1,0-2.8l6-6a2,2,0,1,1,2.8,2.8l-6,6A2,2,0,0,1,236,294Z"/><path class="cls-7" d="M216,314a2,2,0,0,1,0-2.81l6-6a2,2,0,0,1,2.8,2.8l-6,6A2,2,0,0,1,216,314Z"/><path class="cls-7" d="M242.05,314l-6-6a2,2,0,0,1,2.8-2.8l6,6a2,2,0,1,1-2.8,2.81Z"/><path class="cls-7" d="M222,294l-6-6a2,2,0,1,1,2.8-2.8l6,6A2,2,0,1,1,222,294Z"/><circle class="cls-7" cx="138.87" cy="351.58" r="5.54"/><path class="cls-7" d="M144.61,345.84a2,2,0,0,1,0-2.8l6-6a2,2,0,1,1,2.8,2.8l-6,6A2,2,0,0,1,144.61,345.84Z"/><path class="cls-7" d="M124.58,365.86a2,2,0,0,1,0-2.8l6-6a2,2,0,1,1,2.81,2.8l-6,6A2,2,0,0,1,124.58,365.86Z"/><path class="cls-7" d="M150.63,365.86l-6-6a2,2,0,1,1,2.8-2.8l6,6a2,2,0,1,1-2.8,2.8Z"/><path class="cls-7" d="M130.6,345.84l-6-6a2,2,0,1,1,2.8-2.8l6,6a2,2,0,0,1-2.81,2.8Z"/><circle class="cls-7" cx="199.8" cy="351.58" r="5.54"/><path class="cls-7" d="M205.54,345.84a2,2,0,0,1,0-2.8l6-6a2,2,0,1,1,2.8,2.8l-6,6A2,2,0,0,1,205.54,345.84Z"/><path class="cls-7" d="M185.51,365.86a2,2,0,0,1,0-2.8l6-6a2,2,0,1,1,2.8,2.8l-6,6A2,2,0,0,1,185.51,365.86Z"/><path class="cls-7" d="M211.56,365.86l-6-6a2,2,0,0,1,2.8-2.8l6,6a2,2,0,1,1-2.8,2.8Z"/><path class="cls-7" d="M191.53,345.84l-6-6a2,2,0,1,1,2.8-2.8l6,6a2,2,0,1,1-2.8,2.8Z"/><circle class="cls-7" cx="108.43" cy="200.07" r="5.54"/><path class="cls-7" d="M114.17,194.33a2,2,0,0,1,0-2.8l6-6a2,2,0,1,1,2.8,2.8l-6,6A2,2,0,0,1,114.17,194.33Z"/><path class="cls-7" d="M94.14,214.35a2,2,0,0,1,0-2.8l6-6a2,2,0,0,1,2.81,2.8l-6,6A2,2,0,0,1,94.14,214.35Z"/><path class="cls-7" d="M120.19,214.35l-6-6a2,2,0,1,1,2.8-2.8l6,6a2,2,0,0,1-2.8,2.8Z"/><path class="cls-7" d="M100.16,194.33l-6-6a2,2,0,1,1,2.8-2.8l6,6a2,2,0,0,1-2.81,2.8Z"/><circle class="cls-7" cx="230.28" cy="200.07" r="5.54"/><path class="cls-7" d="M236,194.33a2,2,0,0,1,0-2.8l6-6a2,2,0,0,1,2.8,2.8l-6,6A2,2,0,0,1,236,194.33Z"/><path class="cls-7" d="M216,214.35a2,2,0,0,1,0-2.8l6-6a2,2,0,1,1,2.8,2.8l-6,6A2,2,0,0,1,216,214.35Z"/><path class="cls-7" d="M242.05,214.35l-6-6a2,2,0,0,1,2.8-2.8l6,6a2,2,0,0,1-2.8,2.8Z"/><path class="cls-7" d="M222,194.33l-6-6a2,2,0,0,1,2.8-2.8l6,6a2,2,0,1,1-2.8,2.8Z"/><circle class="cls-7" cx="138.87" cy="251.94" r="5.54"/><path class="cls-7" d="M124.58,266.22a2,2,0,0,1,0-2.8l6-6a2,2,0,1,1,2.81,2.8l-6,6A2,2,0,0,1,124.58,266.22Z"/><path class="cls-7" d="M150.63,266.22l-6-6a2,2,0,1,1,2.8-2.8l6,6a2,2,0,1,1-2.8,2.8Z"/><path class="cls-7" d="M130.6,246.2l-6-6a2,2,0,1,1,2.8-2.81l6,6a2,2,0,1,1-2.81,2.8Z"/><circle class="cls-7" cx="199.8" cy="251.94" r="5.54"/><path class="cls-7" d="M205.54,246.2a2,2,0,0,1,0-2.8l6-6a2,2,0,0,1,2.8,2.81l-6,6A2,2,0,0,1,205.54,246.2Z"/><path class="cls-7" d="M185.51,266.22a2,2,0,0,1,0-2.8l6-6a2,2,0,1,1,2.8,2.8l-6,6A2,2,0,0,1,185.51,266.22Z"/><path class="cls-7" d="M211.56,266.22l-6-6a2,2,0,1,1,2.8-2.8l6,6a2,2,0,1,1-2.8,2.8Z"/><circle class="cls-7" cx="108.43" cy="100.42" r="5.54"/><path class="cls-7" d="M114.17,94.68a2,2,0,0,1,0-2.8l6-6a2,2,0,1,1,2.8,2.8l-6,6A2,2,0,0,1,114.17,94.68Z"/><path class="cls-7" d="M94.14,114.71a2,2,0,0,1,0-2.8l6-6a2,2,0,0,1,2.81,2.81l-6,6A2,2,0,0,1,94.14,114.71Z"/><path class="cls-7" d="M120.19,114.71l-6-6a2,2,0,1,1,2.8-2.81l6,6a2,2,0,1,1-2.8,2.8Z"/><path class="cls-7" d="M100.16,94.68l-6-6a2,2,0,1,1,2.8-2.8l6,6a2,2,0,0,1-2.81,2.8Z"/><circle class="cls-7" cx="169.36" cy="100.42" r="5.54"/><path class="cls-7" d="M175.1,94.68a2,2,0,0,1,0-2.8l6-6a2,2,0,0,1,2.8,2.8l-6,6A2,2,0,0,1,175.1,94.68Z"/><path class="cls-7" d="M155.07,114.71a2,2,0,0,1,0-2.8l6-6a2,2,0,1,1,2.8,2.81l-6,6A2,2,0,0,1,155.07,114.71Z"/><path class="cls-7" d="M181.12,114.71l-6-6a2,2,0,0,1,2.8-2.81l6,6a2,2,0,0,1-2.8,2.8Z"/><path class="cls-7" d="M161.09,94.68l-6-6a2,2,0,1,1,2.8-2.8l6,6a2,2,0,1,1-2.8,2.8Z"/><circle class="cls-7" cx="230.28" cy="100.42" r="5.54"/><path class="cls-7" d="M236,94.68a2,2,0,0,1,0-2.8l6-6a2,2,0,0,1,2.8,2.8l-6,6A2,2,0,0,1,236,94.68Z"/><path class="cls-7" d="M216,114.71a2,2,0,0,1,0-2.8l6-6a2,2,0,1,1,2.8,2.81l-6,6A2,2,0,0,1,216,114.71Z"/><path class="cls-7" d="M242.05,114.71l-6-6a2,2,0,0,1,2.8-2.81l6,6a2,2,0,0,1-2.8,2.8Z"/><path class="cls-7" d="M222,94.68l-6-6a2,2,0,1,1,2.8-2.8l6,6a2,2,0,1,1-2.8,2.8Z"/><circle class="cls-7" cx="138.87" cy="152.29" r="5.54"/><path class="cls-7" d="M144.61,146.55a2,2,0,0,1,0-2.8l6-6a2,2,0,0,1,2.8,2.8l-6,6A2,2,0,0,1,144.61,146.55Z"/><path class="cls-7" d="M124.58,166.58a2,2,0,0,1,0-2.8l6-6a2,2,0,0,1,2.81,2.8l-6,6A2,2,0,0,1,124.58,166.58Z"/><path class="cls-7" d="M130.6,146.55l-6-6a2,2,0,1,1,2.8-2.8l6,6a2,2,0,0,1-2.81,2.8Z"/><circle class="cls-7" cx="199.8" cy="152.29" r="5.54"/><path class="cls-7" d="M205.54,146.55a2,2,0,0,1,0-2.8l6-6a2,2,0,0,1,2.8,2.8l-6,6A2,2,0,0,1,205.54,146.55Z"/><path class="cls-7" d="M211.56,166.58l-6-6a2,2,0,0,1,2.8-2.8l6,6a2,2,0,0,1-2.8,2.8Z"/><path class="cls-7" d="M191.53,146.55l-6-6a2,2,0,0,1,2.8-2.8l6,6a2,2,0,0,1-2.8,2.8Z"/><rect class="cls-8" x="82.99" y="379.42" width="26.28" height="61.95"/><rect class="cls-9" x="82.99" y="379.42" width="173.01" height="15.33"/><rect class="cls-10" x="82.99" y="379.42" width="26.28" height="15.33"/><circle class="cls-10" cx="240.44" cy="423.82" r="8.7"/><circle class="cls-10" cx="240.44" cy="405.7" r="6.16"/><rect class="cls-2" x="256" y="73" width="173.01" height="368.37"/><rect class="cls-3" x="256" y="73" width="26.28" height="368.38"/><circle class="cls-4" cx="342.5" cy="204.03" r="43.25"/><circle class="cls-5" cx="342.5" cy="204.03" r="34.31"/><path class="cls-6" d="M351.81,237.06a34.31,34.31,0,1,1,0-66.05,34.31,34.31,0,0,0,0,66.05Z"/><rect class="cls-4" x="256" y="379.42" width="173.01" height="61.96"/><circle class="cls-7" cx="281.44" cy="299.71" r="5.54"/><path class="cls-7" d="M287.18,294a2,2,0,0,1,0-2.8l6-6A2,2,0,1,1,296,288l-6,6A2,2,0,0,1,287.18,294Z"/><path class="cls-7" d="M267.15,314a2,2,0,0,1,0-2.81l6-6A2,2,0,0,1,276,308l-6,6A2,2,0,0,1,267.15,314Z"/><path class="cls-7" d="M293.2,314l-6-6a2,2,0,0,1,2.8-2.8l6,6a2,2,0,1,1-2.8,2.81Z"/><path class="cls-7" d="M273.17,294l-6-6a2,2,0,1,1,2.8-2.8l6,6a2,2,0,1,1-2.8,2.8Z"/><circle class="cls-7" cx="342.36" cy="299.71" r="5.54"/><path class="cls-7" d="M348.11,294a2,2,0,0,1,0-2.8l6-6a2,2,0,0,1,2.8,2.8l-6,6A2,2,0,0,1,348.11,294Z"/><path class="cls-7" d="M328.08,314a2,2,0,0,1,0-2.81l6-6a2,2,0,0,1,2.8,2.8l-6,6A2,2,0,0,1,328.08,314Z"/><path class="cls-7" d="M354.13,314l-6-6a2,2,0,0,1,2.8-2.8l6,6a2,2,0,0,1-2.8,2.81Z"/><path class="cls-7" d="M334.1,294l-6-6a2,2,0,0,1,2.8-2.8l6,6a2,2,0,1,1-2.8,2.8Z"/><circle class="cls-7" cx="403.29" cy="299.71" r="5.54"/><path class="cls-7" d="M409,294a2,2,0,0,1,0-2.8l6-6a2,2,0,1,1,2.8,2.8l-6,6A2,2,0,0,1,409,294Z"/><path class="cls-7" d="M389,314a2,2,0,0,1,0-2.81l6-6a2,2,0,0,1,2.8,2.8l-6,6A2,2,0,0,1,389,314Z"/><path class="cls-7" d="M415.06,314l-6-6a2,2,0,1,1,2.81-2.8l6,6a2,2,0,1,1-2.8,2.81Z"/><path class="cls-7" d="M395,294l-6-6a2,2,0,1,1,2.8-2.8l6,6A2,2,0,0,1,395,294Z"/><circle class="cls-7" cx="311.88" cy="351.58" r="5.54"/><path class="cls-7" d="M317.62,345.84a2,2,0,0,1,0-2.8l6-6a2,2,0,0,1,2.8,2.8l-6,6A2,2,0,0,1,317.62,345.84Z"/><path class="cls-7" d="M297.59,365.86a2,2,0,0,1,0-2.8l6-6a2,2,0,0,1,2.8,2.8l-6,6A2,2,0,0,1,297.59,365.86Z"/><path class="cls-7" d="M323.64,365.86l-6-6a2,2,0,1,1,2.8-2.8l6,6a2,2,0,0,1-2.8,2.8Z"/><path class="cls-7" d="M303.61,345.84l-6-6a2,2,0,0,1,2.8-2.8l6,6a2,2,0,0,1-2.8,2.8Z"/><circle class="cls-7" cx="372.8" cy="351.58" r="5.54"/><path class="cls-7" d="M378.55,345.84a2,2,0,0,1,0-2.8l6-6a2,2,0,1,1,2.8,2.8l-6,6A2,2,0,0,1,378.55,345.84Z"/><path class="cls-7" d="M358.52,365.86a2,2,0,0,1,0-2.8l6-6a2,2,0,0,1,2.8,2.8l-6,6A2,2,0,0,1,358.52,365.86Z"/><path class="cls-7" d="M384.57,365.86l-6-6a2,2,0,0,1,2.8-2.8l6,6a2,2,0,1,1-2.8,2.8Z"/><path class="cls-7" d="M364.54,345.84l-6-6a2,2,0,1,1,2.8-2.8l6,6a2,2,0,0,1-2.8,2.8Z"/><circle class="cls-7" cx="281.44" cy="200.07" r="5.54"/><path class="cls-7" d="M287.18,194.33a2,2,0,0,1,0-2.8l6-6a2,2,0,1,1,2.8,2.8l-6,6A2,2,0,0,1,287.18,194.33Z"/><path class="cls-7" d="M267.15,214.35a2,2,0,0,1,0-2.8l6-6a2,2,0,1,1,2.8,2.8l-6,6A2,2,0,0,1,267.15,214.35Z"/><path class="cls-7" d="M293.2,214.35l-6-6a2,2,0,0,1,2.8-2.8l6,6a2,2,0,1,1-2.8,2.8Z"/><path class="cls-7" d="M273.17,194.33l-6-6a2,2,0,1,1,2.8-2.8l6,6a2,2,0,1,1-2.8,2.8Z"/><circle class="cls-7" cx="403.29" cy="200.07" r="5.54"/><path class="cls-7" d="M409,194.33a2,2,0,0,1,0-2.8l6-6a2,2,0,1,1,2.8,2.8l-6,6A2,2,0,0,1,409,194.33Z"/><path class="cls-7" d="M389,214.35a2,2,0,0,1,0-2.8l6-6a2,2,0,0,1,2.8,2.8l-6,6A2,2,0,0,1,389,214.35Z"/><path class="cls-7" d="M415.06,214.35l-6-6a2,2,0,1,1,2.81-2.8l6,6a2,2,0,1,1-2.8,2.8Z"/><path class="cls-7" d="M395,194.33l-6-6a2,2,0,1,1,2.8-2.8l6,6a2,2,0,0,1-2.8,2.8Z"/><circle class="cls-7" cx="311.88" cy="251.94" r="5.54"/><path class="cls-7" d="M297.59,266.22a2,2,0,0,1,0-2.8l6-6a2,2,0,0,1,2.8,2.8l-6,6A2,2,0,0,1,297.59,266.22Z"/><path class="cls-7" d="M323.64,266.22l-6-6a2,2,0,1,1,2.8-2.8l6,6a2,2,0,0,1-2.8,2.8Z"/><path class="cls-7" d="M303.61,246.2l-6-6a2,2,0,0,1,2.8-2.81l6,6a2,2,0,0,1-2.8,2.8Z"/><circle class="cls-7" cx="372.8" cy="251.94" r="5.54"/><path class="cls-7" d="M378.55,246.2a2,2,0,0,1,0-2.8l6-6a2,2,0,1,1,2.8,2.81l-6,6A2,2,0,0,1,378.55,246.2Z"/><path class="cls-7" d="M358.52,266.22a2,2,0,0,1,0-2.8l6-6a2,2,0,1,1,2.8,2.8l-6,6A2,2,0,0,1,358.52,266.22Z"/><path class="cls-7" d="M384.57,266.22l-6-6a2,2,0,0,1,2.8-2.8l6,6a2,2,0,1,1-2.8,2.8Z"/><circle class="cls-7" cx="281.44" cy="100.42" r="5.54"/><path class="cls-7" d="M287.18,94.68a2,2,0,0,1,0-2.8l6-6a2,2,0,1,1,2.8,2.8l-6,6A2,2,0,0,1,287.18,94.68Z"/><path class="cls-7" d="M267.15,114.71a2,2,0,0,1,0-2.8l6-6a2,2,0,1,1,2.8,2.81l-6,6A2,2,0,0,1,267.15,114.71Z"/><path class="cls-7" d="M293.2,114.71l-6-6a2,2,0,0,1,2.8-2.81l6,6a2,2,0,1,1-2.8,2.8Z"/><path class="cls-7" d="M273.17,94.68l-6-6a2,2,0,1,1,2.8-2.8l6,6a2,2,0,1,1-2.8,2.8Z"/><circle class="cls-7" cx="342.36" cy="100.42" r="5.54"/><path class="cls-7" d="M348.11,94.68a2,2,0,0,1,0-2.8l6-6a2,2,0,0,1,2.8,2.8l-6,6A2,2,0,0,1,348.11,94.68Z"/><path class="cls-7" d="M328.08,114.71a2,2,0,0,1,0-2.8l6-6a2,2,0,1,1,2.8,2.81l-6,6A2,2,0,0,1,328.08,114.71Z"/><path class="cls-7" d="M354.13,114.71l-6-6a2,2,0,1,1,2.8-2.81l6,6a2,2,0,0,1-2.8,2.8Z"/><path class="cls-7" d="M334.1,94.68l-6-6a2,2,0,0,1,2.8-2.8l6,6a2,2,0,0,1-2.8,2.8Z"/><circle class="cls-7" cx="403.29" cy="100.42" r="5.54"/><path class="cls-7" d="M409,94.68a2,2,0,0,1,0-2.8l6-6a2,2,0,1,1,2.8,2.8l-6,6A2,2,0,0,1,409,94.68Z"/><path class="cls-7" d="M389,114.71a2,2,0,0,1,0-2.8l6-6a2,2,0,0,1,2.8,2.81l-6,6A2,2,0,0,1,389,114.71Z"/><path class="cls-7" d="M415.06,114.71l-6-6a2,2,0,1,1,2.81-2.81l6,6a2,2,0,1,1-2.8,2.8Z"/><path class="cls-7" d="M395,94.68l-6-6a2,2,0,1,1,2.8-2.8l6,6a2,2,0,0,1-2.8,2.8Z"/><circle class="cls-7" cx="311.88" cy="152.29" r="5.54"/><path class="cls-7" d="M317.62,146.55a2,2,0,0,1,0-2.8l6-6a2,2,0,0,1,2.8,2.8l-6,6A2,2,0,0,1,317.62,146.55Z"/><path class="cls-7" d="M297.59,166.58a2,2,0,0,1,0-2.8l6-6a2,2,0,0,1,2.8,2.8l-6,6A2,2,0,0,1,297.59,166.58Z"/><path class="cls-7" d="M303.61,146.55l-6-6a2,2,0,0,1,2.8-2.8l6,6a2,2,0,0,1-2.8,2.8Z"/><circle class="cls-7" cx="372.8" cy="152.29" r="5.54"/><path class="cls-7" d="M378.55,146.55a2,2,0,0,1,0-2.8l6-6a2,2,0,1,1,2.8,2.8l-6,6A2,2,0,0,1,378.55,146.55Z"/><path class="cls-7" d="M384.57,166.58l-6-6a2,2,0,0,1,2.8-2.8l6,6a2,2,0,1,1-2.8,2.8Z"/><path class="cls-7" d="M364.54,146.55l-6-6a2,2,0,1,1,2.8-2.8l6,6a2,2,0,0,1-2.8,2.8Z"/><rect class="cls-8" x="256" y="379.42" width="26.28" height="61.95"/><rect class="cls-9" x="256" y="379.42" width="173.01" height="15.33"/><rect class="cls-10" x="256" y="379.42" width="26.28" height="15.33"/><circle class="cls-10" cx="413.45" cy="423.82" r="8.7"/><circle class="cls-10" cx="413.45" cy="405.7" r="6.16"/><path class="cls-4" d="M256,230.55a31.26,31.26,0,1,0,0,62.52"/><path class="cls-8" d="M256.07,287.3v5.77a31.26,31.26,0,0,1-14.6-58.9,31.25,31.25,0,0,0,14.6,53.13Z"/><rect class="cls-5" x="239.59" y="245.21" width="8.94" height="33.2" rx="4.47"/><path class="cls-4" d="M255.93,293.07a31.26,31.26,0,0,0,0-62.52Z"/><path class="cls-8" d="M285.56,271.79a31.26,31.26,0,0,1-29.63,21.28V230.54a30,30,0,0,1,5.48.5v32c0,12.64,15.86,18.62,24,8.93Z"/><rect class="cls-5" x="263.61" y="245.21" width="8.94" height="33.2" rx="4.47" transform="translate(536.15 523.62) rotate(-180)"/></g></svg>