<svg xmlns="http://www.w3.org/2000/svg" viewBox="0 0 512 512"><defs><style>.cls-1{fill:#f55b4b;}.cls-2{fill:#32314b;}.cls-3{fill:#4f4f74;}.cls-4{fill:#3e436d;}.cls-5{fill:#fff;}.cls-6{fill:#27273d;}.cls-7{fill:#444463;}.cls-8{fill:#3a3a59;}</style></defs><title>Cinema</title><g id="BULINE"><circle class="cls-1" cx="256" cy="256" r="256"/></g><g id="Icons"><path class="cls-2" d="M416.89,361.59a1009.19,1009.19,0,0,1-321.78,0,19.49,19.49,0,0,1-16.36-19.27V317.83h354.5v24.49A19.49,19.49,0,0,1,416.89,361.59Z"/><path class="cls-3" d="M129.5,336.22,49.7,323.35a15.71,15.71,0,0,1-13.2-15.51V174.59a15.69,15.69,0,0,1,13.2-15.5l79.8-12.87Z"/><path class="cls-2" d="M36.5,186.66H97.84a5.16,5.16,0,0,1,5.16,5.16V290a5.16,5.16,0,0,1-5.16,5.16H36.5a0,0,0,0,1,0,0V186.66A0,0,0,0,1,36.5,186.66Z"/><path class="cls-4" d="M382.5,336.22a1184.15,1184.15,0,0,1-253,0v-190a1018,1018,0,0,1,253,0Z"/><rect class="cls-4" x="28.5" y="186.01" width="67.5" height="12.5" rx="6.25"/><rect class="cls-4" x="28.5" y="205.59" width="67.5" height="12.5" rx="6.25"/><rect class="cls-4" x="28.5" y="225.17" width="67.5" height="12.5" rx="6.25"/><rect class="cls-4" x="28.5" y="244.76" width="67.5" height="12.5" rx="6.25"/><rect class="cls-4" x="28.5" y="264.34" width="67.5" height="12.5" rx="6.25"/><rect class="cls-4" x="28.5" y="283.92" width="67.5" height="12.5" rx="6.25"/><path class="cls-3" d="M382.5,336.22l79.8-12.87a15.71,15.71,0,0,0,13.2-15.51V174.59a15.69,15.69,0,0,0-13.2-15.5l-79.8-12.87Z"/><path class="cls-2" d="M409,186.66h61.34a5.16,5.16,0,0,1,5.16,5.16V290a5.16,5.16,0,0,1-5.16,5.16H409a0,0,0,0,1,0,0V186.66A0,0,0,0,1,409,186.66Z" transform="translate(884.5 481.82) rotate(-180)"/><rect class="cls-4" x="416" y="186.01" width="67.5" height="12.5" rx="6.25" transform="translate(899.5 384.52) rotate(-180)"/><rect class="cls-4" x="416" y="205.59" width="67.5" height="12.5" rx="6.25" transform="translate(899.5 423.68) rotate(-180)"/><rect class="cls-4" x="416" y="225.17" width="67.5" height="12.5" rx="6.25" transform="translate(899.5 462.85) rotate(-180)"/><rect class="cls-4" x="416" y="244.76" width="67.5" height="12.5" rx="6.25" transform="translate(899.5 502.02) rotate(-180)"/><rect class="cls-4" x="416" y="264.34" width="67.5" height="12.5" rx="6.25" transform="translate(899.5 541.18) rotate(180)"/><rect class="cls-4" x="416" y="283.92" width="67.5" height="12.5" rx="6.25" transform="translate(899.5 580.35) rotate(-180)"/><circle class="cls-2" cx="256" cy="240.72" r="80.17"/><circle class="cls-5" cx="256" cy="240.66" r="71.83"/><circle class="cls-3" cx="256" cy="240.72" r="65"/><path class="cls-2" d="M292.18,240.72A36.18,36.18,0,1,1,256,204.54a35.33,35.33,0,0,1,6.87.66,36.17,36.17,0,0,1,29.31,35.52Z"/><circle class="cls-6" cx="256" cy="240.72" r="20.39"/><path class="cls-7" d="M291.64,232.1l-15.33,3.76-19.81,4.86,3.88-20,3-15.5A36.21,36.21,0,0,1,291.64,232.1Z"/><path class="cls-8" d="M276.31,235.86l-19.81,4.86,3.88-20A20.43,20.43,0,0,1,276.31,235.86Z"/></g></svg>