<svg xmlns="http://www.w3.org/2000/svg" viewBox="0 0 512 512"><defs><style>.cls-1{fill:#27273d;}.cls-2{fill:#f7bb38;}.cls-3{fill:#dda12a;}.cls-4{fill:#f6d372;}</style></defs><title>Cinema</title><g id="BULINE"><circle class="cls-1" cx="256" cy="256" r="256"/></g><g id="Icons"><path class="cls-2" d="M218.19,86.68c-11.35,5-24.15,2.45-30.45.64a3.61,3.61,0,0,1-2.23-5.09c2.92-5.86,9.72-17,21.07-22s24.15-2.45,30.45-.64a3.61,3.61,0,0,1,2.23,5.09C236.34,70.55,229.54,81.69,218.19,86.68Z"/><path class="cls-3" d="M151.93,90.67c-5.55,11.08-17,17.31-23,19.94a3.62,3.62,0,0,1-5-2.49c-1.49-6.38-3.38-19.3,2.17-30.38s17-17.31,23-19.94a3.61,3.61,0,0,1,5,2.49C155.6,66.67,157.48,79.58,151.93,90.67Z"/><path class="cls-4" d="M167.51,104.49c-12.31,1.44-22.08,10.09-26.6,14.84a3.61,3.61,0,0,0,.65,5.52c5.49,3.58,17,9.75,29.3,8.31s22.07-10.09,26.59-14.84a3.61,3.61,0,0,0-.65-5.52C191.31,109.22,179.81,103.05,167.51,104.49Z"/><path class="cls-2" d="M101.66,128.28c-1.52,12.3-10.25,22-15,26.49a3.6,3.6,0,0,1-5.51-.69C77.58,148.57,71.49,137,73,124.73s10.24-22,15-26.49a3.61,3.61,0,0,1,5.51.68C97.09,104.43,103.18,116,101.66,128.28Z"/><path class="cls-2" d="M124.15,141.32c-11.78,3.85-19.64,14.27-23.13,19.82a3.61,3.61,0,0,0,1.73,5.28c6.09,2.42,18.58,6.19,30.36,2.34S152.75,154.5,156.24,149a3.61,3.61,0,0,0-1.73-5.28C148.42,141.24,135.93,137.47,124.15,141.32Z"/><path class="cls-3" d="M66.34,182.32c1.94,12.25-3.76,24-7.12,29.61a3.6,3.6,0,0,1-5.48.87c-4.93-4.32-14-13.73-15.91-26s3.77-24,7.12-29.61a3.61,3.61,0,0,1,5.49-.87C55.37,160.67,64.41,170.08,66.34,182.32Z"/><path class="cls-4" d="M91.8,190.38c-10.25,7-14.93,19.14-16.74,25.43a3.6,3.6,0,0,0,3.11,4.6c6.52.65,19.57.82,29.83-6.14s14.93-19.14,16.75-25.43a3.6,3.6,0,0,0-3.12-4.6C115.11,183.59,102.06,183.42,91.8,190.38Z"/><path class="cls-2" d="M45.13,254.54c7,10.19,7,23.24,6.43,29.77A3.61,3.61,0,0,1,47,287.47c-6.32-1.76-18.55-6.31-25.6-16.5s-7-23.25-6.42-29.77A3.61,3.61,0,0,1,19.54,238C25.85,239.79,38.08,244.35,45.13,254.54Z"/><path class="cls-2" d="M71.92,252.3C65.69,263,66.76,276,67.86,282.48a3.61,3.61,0,0,0,4.8,2.8c6.16-2.25,18-7.76,24.22-18.47s5.15-23.72,4.06-30.18a3.61,3.61,0,0,0-4.8-2.8C90,236.08,78.15,241.59,71.92,252.3Z"/><path class="cls-3" d="M56.45,323.71c9.49,8,12.89,20.57,14.06,27A3.61,3.61,0,0,1,66.93,355c-6.55,0-19.55-1.19-29-9.16s-12.89-20.56-14.06-27a3.61,3.61,0,0,1,3.57-4.26C34,314.58,47,315.74,56.45,323.71Z"/><path class="cls-4" d="M83.61,311.86c-3.18,12,1.29,24.24,4,30.18A3.6,3.6,0,0,0,93,343.46c5.34-3.79,15.3-12.22,18.48-24.2s-1.29-24.24-4.05-30.19a3.61,3.61,0,0,0-5.37-1.42C96.74,291.44,86.78,299.88,83.61,311.86Z"/><path class="cls-2" d="M90.45,388.47c12.2,2.16,21.44,11.37,25.67,16.38a3.61,3.61,0,0,1-1,5.47c-5.69,3.25-17.53,8.74-29.73,6.58S64,405.52,59.74,400.51a3.61,3.61,0,0,1,1-5.47C66.4,391.79,78.24,386.31,90.45,388.47Z"/><path class="cls-2" d="M111.93,363.38c2,12.23,11.11,21.58,16.06,25.87a3.61,3.61,0,0,0,5.48-.9c3.32-5.65,8.95-17.42,6.94-29.65s-11.11-21.59-16.06-25.88a3.6,3.6,0,0,0-5.48.91C115.55,339.38,109.92,351.15,111.93,363.38Z"/><path class="cls-3" d="M149.85,425.41c12.24-1.93,24,3.78,29.6,7.13a3.61,3.61,0,0,1,.87,5.49c-4.32,4.93-13.74,14-26,15.89s-24-3.77-29.61-7.13a3.61,3.61,0,0,1-.86-5.49C128.19,436.37,137.6,427.34,149.85,425.41Z"/><path class="cls-4" d="M160.59,397.27c6.95,10.27,19.13,15,25.43,16.77a3.6,3.6,0,0,0,4.59-3.12c.65-6.52.83-19.57-6.12-29.83s-19.13-14.94-25.43-16.76a3.6,3.6,0,0,0-4.59,3.11C153.82,374,153.64,387,160.59,397.27Z"/><path class="cls-2" d="M239.65,434.59c-49.07,0-94.76-16.59-128.66-46.71a158.52,158.52,0,0,1-53.89-120c0-37.62,12.46-76.75,35.07-110.15,22.89-33.82,54.26-58.77,88.34-70.25a2.23,2.23,0,0,1,1.42,4.23C114.43,114.46,61.56,191.84,61.56,267.88c0,92.5,76.56,162.25,178.09,162.25a2.23,2.23,0,0,1,0,4.46Z"/><path class="cls-2" d="M293.81,86.68c11.35,5,24.15,2.45,30.45.64a3.61,3.61,0,0,0,2.23-5.09c-2.92-5.86-9.72-17-21.07-22S281.27,57.79,275,59.6a3.61,3.61,0,0,0-2.23,5.09C275.66,70.55,282.46,81.69,293.81,86.68Z"/><path class="cls-3" d="M360.07,90.67c5.55,11.08,17,17.31,23,19.94a3.62,3.62,0,0,0,5-2.49c1.49-6.38,3.38-19.3-2.17-30.38s-17-17.31-23-19.94a3.61,3.61,0,0,0-5,2.49C356.4,66.67,354.52,79.58,360.07,90.67Z"/><path class="cls-4" d="M344.49,104.49c12.31,1.44,22.08,10.09,26.6,14.84a3.61,3.61,0,0,1-.65,5.52c-5.49,3.58-17,9.75-29.3,8.31s-22.07-10.09-26.59-14.84a3.61,3.61,0,0,1,.65-5.52C320.69,109.22,332.19,103.05,344.49,104.49Z"/><path class="cls-2" d="M410.34,128.28c1.52,12.3,10.25,22,15,26.49a3.6,3.6,0,0,0,5.51-.69c3.54-5.51,9.63-17.05,8.11-29.35s-10.24-22-15-26.49a3.61,3.61,0,0,0-5.51.68C414.91,104.43,408.82,116,410.34,128.28Z"/><path class="cls-2" d="M387.85,141.32c11.78,3.85,19.64,14.27,23.13,19.82a3.61,3.61,0,0,1-1.73,5.28c-6.09,2.42-18.58,6.19-30.36,2.34S359.25,154.5,355.76,149a3.61,3.61,0,0,1,1.73-5.28C363.58,141.24,376.07,137.47,387.85,141.32Z"/><path class="cls-3" d="M445.66,182.32c-1.94,12.25,3.76,24,7.12,29.61a3.6,3.6,0,0,0,5.48.87c4.93-4.32,14-13.73,15.91-26s-3.77-24-7.12-29.61a3.61,3.61,0,0,0-5.49-.87C456.63,160.67,447.59,170.08,445.66,182.32Z"/><path class="cls-4" d="M420.2,190.38c10.25,7,14.93,19.14,16.74,25.43a3.6,3.6,0,0,1-3.11,4.6c-6.52.65-19.57.82-29.83-6.14s-14.93-19.14-16.75-25.43a3.6,3.6,0,0,1,3.12-4.6C396.89,183.59,409.94,183.42,420.2,190.38Z"/><path class="cls-2" d="M466.87,254.54c-7.05,10.19-7,23.24-6.43,29.77a3.61,3.61,0,0,0,4.57,3.16c6.32-1.76,18.55-6.31,25.6-16.5s7-23.25,6.42-29.77a3.61,3.61,0,0,0-4.57-3.17C486.15,239.79,473.92,244.35,466.87,254.54Z"/><path class="cls-2" d="M440.08,252.3c6.23,10.72,5.16,23.72,4.06,30.18a3.61,3.61,0,0,1-4.8,2.8c-6.16-2.25-18-7.76-24.22-18.47s-5.15-23.72-4.06-30.18a3.61,3.61,0,0,1,4.8-2.8C422,236.08,433.85,241.59,440.08,252.3Z"/><path class="cls-3" d="M455.55,323.71c-9.49,8-12.89,20.57-14.06,27a3.61,3.61,0,0,0,3.58,4.25c6.55,0,19.55-1.19,29-9.16s12.89-20.56,14.06-27a3.61,3.61,0,0,0-3.57-4.26C478,314.58,465,315.74,455.55,323.71Z"/><path class="cls-4" d="M428.39,311.86c3.18,12-1.29,24.24-4.05,30.18a3.6,3.6,0,0,1-5.37,1.42c-5.34-3.79-15.3-12.22-18.48-24.2s1.29-24.24,4.05-30.19a3.61,3.61,0,0,1,5.37-1.42C415.26,291.44,425.22,299.88,428.39,311.86Z"/><path class="cls-2" d="M421.55,388.47c-12.2,2.16-21.44,11.37-25.67,16.38a3.61,3.61,0,0,0,1,5.47c5.69,3.25,17.53,8.74,29.73,6.58s21.45-11.38,25.68-16.39a3.61,3.61,0,0,0-1-5.47C445.6,391.79,433.76,386.31,421.55,388.47Z"/><path class="cls-2" d="M400.07,363.38C398.06,375.61,389,385,384,389.25a3.61,3.61,0,0,1-5.48-.9c-3.32-5.65-8.95-17.42-6.94-29.65s11.11-21.59,16.06-25.88a3.6,3.6,0,0,1,5.48.91C396.45,339.38,402.08,351.15,400.07,363.38Z"/><path class="cls-3" d="M362.15,425.41c-12.24-1.93-24,3.78-29.6,7.13a3.61,3.61,0,0,0-.87,5.49c4.32,4.93,13.74,14,26,15.89s24-3.77,29.61-7.13a3.61,3.61,0,0,0,.86-5.49C383.81,436.37,374.4,427.34,362.15,425.41Z"/><path class="cls-4" d="M351.41,397.27c-7,10.27-19.13,15-25.43,16.77a3.6,3.6,0,0,1-4.59-3.12c-.65-6.52-.83-19.57,6.12-29.83s19.13-14.94,25.43-16.76a3.6,3.6,0,0,1,4.59,3.11C358.18,374,358.36,387,351.41,397.27Z"/><path class="cls-2" d="M272.35,434.59c49.07,0,94.76-16.59,128.66-46.71a158.52,158.52,0,0,0,53.89-120c0-37.62-12.46-76.75-35.07-110.15C396.94,123.91,365.57,99,331.49,87.48a2.23,2.23,0,0,0-1.42,4.23c67.5,22.75,120.37,100.13,120.37,176.17,0,92.5-76.56,162.25-178.09,162.25a2.23,2.23,0,0,0,0,4.46Z"/></g></svg>