<?xml version="1.0" encoding="iso-8859-1"?>
<!-- Generator: Adobe Illustrator 22.0.1, SVG Export Plug-In . SVG Version: 6.00 Build 0)  -->
<svg version="1.1" id="Layer_7" xmlns="http://www.w3.org/2000/svg" xmlns:xlink="http://www.w3.org/1999/xlink" x="0px" y="0px"
	 viewBox="0 0 512 512" style="enable-background:new 0 0 512 512;" xml:space="preserve">
<g>
	<path style="fill:#704D70;" d="M512,256.002C512,397.392,397.387,512,255.998,512C114.614,512,0,397.392,0,256.002
		C0,114.612,114.614,0,255.998,0C397.387,0,512,114.612,512,256.002z"/>
	<g>
		<defs>
			<path id="SVGID_17_" d="M0,255.996C0,114.607,114.613,0,256.002,0C397.387,0,512,114.607,512,255.996
				C512,397.389,397.387,512,256.002,512C114.613,512,0,397.389,0,255.996z"/>
		</defs>
		<clipPath id="SVGID_2_">
			<use xlink:href="#SVGID_17_"  style="overflow:visible;"/>
		</clipPath>
		<g style="clip-path:url(#SVGID_2_);">
			<g>
				<g>
					<path style="fill:#F0B39C;" d="M192.277,247.668c6.501,14.457,2.995,28.533-7.82,31.436
						c-10.808,2.896-24.846-6.48-31.348-20.944c-6.494-14.462-2.998-28.526,7.823-31.433
						C171.744,223.831,185.778,233.207,192.277,247.668z"/>
					<path style="fill:#F0B39C;" d="M324.039,247.433c-6.44,14.485-2.889,28.545,7.936,31.407
						c10.825,2.864,24.83-6.566,31.277-21.051c6.444-14.478,2.896-28.543-7.932-31.4
						C344.491,223.52,330.486,232.955,324.039,247.433z"/>
				</g>
				<path style="fill:#F0B39C;" d="M297.698,369.61c0.034,20.478-16.528,37.106-37.006,37.144l-4.494,0.005
					c-20.478,0.038-37.106-16.53-37.144-37.008l-0.164-95.491c-0.033-20.473,16.523-37.106,37.008-37.139l4.492-0.012
					c20.473-0.038,37.101,16.53,37.139,37.009L297.698,369.61z"/>
				<g>
					<path style="fill:#FFDBC5;" d="M346.453,253.122c0.138,72.456-83.328,110.13-140.095,65.116
						c-67.71-53.69-49.987-208.456,51.569-208.636c48.771-0.088,88.352,40.671,88.44,90.975
						C346.367,200.577,346.453,253.11,346.453,253.122z"/>
				</g>
				<polygon style="fill:#3D2A3D;" points="175.462,87.725 178.434,110.472 154.666,109.764 170.602,136 202,110.593 				"/>
				<g>
					<defs>
						<path id="SVGID_19_" d="M346.453,253.122c0.138,72.456-83.328,110.13-140.095,65.116
							c-67.71-53.69-49.987-208.456,51.569-208.636c48.771-0.088,88.352,40.671,88.44,90.975
							C346.367,200.577,346.453,253.11,346.453,253.122z"/>
					</defs>
					<clipPath id="SVGID_4_">
						<use xlink:href="#SVGID_19_"  style="overflow:visible;"/>
					</clipPath>
					<circle style="clip-path:url(#SVGID_4_);fill:#F0B39C;" cx="324.845" cy="295" r="25"/>
					<circle style="clip-path:url(#SVGID_4_);fill:#F0B39C;" cx="187" cy="295" r="25"/>
				</g>
				<g>
					<g>
						<path style="fill:#3D2A3D;" d="M207.323,222.387c4.948-8.388,17.708-10.516,26.255-7.314c7.869,2.95,11.24-9.625,3.456-12.537
							c-13.998-5.252-33.201,0.152-40.944,13.283C191.819,223.062,203.063,229.601,207.323,222.387L207.323,222.387z"/>
					</g>
					<g>
						<path style="fill:#3D2A3D;" d="M310.787,222.387c-4.941-8.388-17.711-10.516-26.253-7.314
							c-7.875,2.95-11.241-9.625-3.463-12.537c14-5.252,33.203,0.152,40.951,13.283
							C326.286,223.062,315.041,229.601,310.787,222.387L310.787,222.387z"/>
					</g>
				</g>
			</g>
			<path style="fill:#F0B39C;" d="M272.329,250c-0.449,7.895-7.047,14.157-15.202,14.157c-6.908,0-12.678-4.519-14.576-10.712
				c-0.424,1.452-0.732,2.963-0.732,4.546c0,9.028,7.327,16.353,16.339,16.353c9.035,0,16.335-7.325,16.335-16.353
				C274.492,255.065,273.674,252.373,272.329,250z"/>
			<g>
				<circle style="fill:#3D2A3D;" cx="225.314" cy="240.096" r="9.904"/>
				<circle style="fill:#3D2A3D;" cx="290.997" cy="240.096" r="9.904"/>
			</g>
			<g>
				<path style="fill:#F0B39C;" d="M441.602,516l-0.053-0.842c0-51.205-19.168-100.816-42.572-110.264l-99.68-40.158
					c-23.406-9.439-61.737-9.477-85.148-0.112l-101.107,40.397c-23.425,9.378-42.593,58.933-42.593,110.138L70.398,516H441.602z"/>
				<path style="fill:#9EC853;" d="M441.549,515.158c0-51.205-19.168-100.816-42.572-110.264l-79.255-31.93
					C308.704,397.166,284.326,414,256,414c-28.194,0-52.479-16.678-63.57-40.698l-79.387,31.719
					c-23.425,9.378-42.593,58.933-42.593,110.138L70.398,516h371.204L441.549,515.158z"/>
			</g>
		</g>
		<g style="clip-path:url(#SVGID_2_);">
			<polygon style="fill:#3D2A3D;" points="339.088,238.653 350.45,238.729 350.949,163.93 327.569,151.642 			"/>
			<polygon style="fill:#3D2A3D;" points="162,238.416 173.354,238.487 186.08,151.642 162,163.604 			"/>
			<g>
				<path style="fill:#3D2A3D;" d="M219.68,106h99.646v74.466H162v-16.777C162,131.832,187.819,106,219.68,106z"/>
				<path style="fill:#3D2A3D;" d="M216.54,106h156.274v16.788c0,31.854-25.827,57.678-57.688,57.678H216.54V106z"/>
			</g>
		</g>
		<g style="clip-path:url(#SVGID_2_);">
			<g>
				<path style="fill:#A91935;" d="M230.74,286c0,0.165-0.01,0.352-0.01,0.528c0,16.919,13.725,30.638,30.633,30.638
					c16.912,0,30.637-13.719,30.637-30.638c0-0.176-0.014-0.362-0.021-0.528H230.74z"/>
				<path style="fill:#FFFFFF;" d="M240.466,286v2.622c0,5.322,4.306,9.628,9.619,9.628h31.517c5.32,0,9.633-4.306,9.633-9.628V286
					H240.466z"/>
			</g>
		</g>
		<g style="clip-path:url(#SVGID_2_);">
			<path style="fill:#3D2A3D;" d="M326.215,216h-41.069c-8.685,0-15.761,7.066-15.761,15.759v17.765
				c0,8.681,7.076,15.766,15.761,15.766h41.069c8.701,0,15.785-7.084,15.785-15.766v-17.765C342,223.066,334.916,216,326.215,216z
				 M334.868,249.525c0,4.781-3.853,8.663-8.654,8.663h-41.069c-4.773,0-8.654-3.882-8.654-8.663v-17.765
				c0-4.789,3.881-8.658,8.654-8.658h41.069c4.801,0,8.654,3.869,8.654,8.658V249.525z"/>
			<path style="fill:#3D2A3D;" d="M238.894,216h-41.093c-8.713,0-15.801,7.066-15.801,15.759v17.765
				c0,8.681,7.088,15.766,15.801,15.766h41.093c8.665,0,15.749-7.084,15.749-15.766v-17.765
				C254.643,223.066,247.559,216,238.894,216z M247.52,249.525c0,4.781-3.877,8.663-8.626,8.663h-41.093
				c-4.793,0-8.661-3.882-8.661-8.663v-17.765c0-4.789,3.868-8.658,8.661-8.658h41.093c4.749,0,8.626,3.869,8.626,8.658V249.525z"/>
			<rect x="250.854" y="236.57" style="fill:#3D2A3D;" width="22.335" height="8.122"/>
		</g>
	</g>
</g>
</svg>
