<?xml version="1.0" encoding="iso-8859-1"?>
<!-- Generator: Adobe Illustrator 22.0.1, SVG Export Plug-In . SVG Version: 6.00 Build 0)  -->
<svg version="1.1" id="Layer_7" xmlns="http://www.w3.org/2000/svg" xmlns:xlink="http://www.w3.org/1999/xlink" x="0px" y="0px"
	 viewBox="0 0 512 512" style="enable-background:new 0 0 512 512;" xml:space="preserve">
<g>
	<path style="fill:#78BEDE;" d="M512,256.002C512,397.392,397.387,512,255.998,512C114.613,512,0,397.392,0,256.002
		C0,114.612,114.613,0,255.998,0C397.387,0,512,114.612,512,256.002z"/>
	<g>
		<defs>
			<path id="SVGID_13_" d="M0,255.996C0,114.607,114.613,0,256.002,0C397.387,0,512,114.607,512,255.996
				C512,397.389,397.387,512,256.002,512C114.613,512,0,397.389,0,255.996z"/>
		</defs>
		<clipPath id="SVGID_2_">
			<use xlink:href="#SVGID_13_"  style="overflow:visible;"/>
		</clipPath>
		<g style="clip-path:url(#SVGID_2_);">
			<g>
				<path style="fill:#F0B39C;" d="M191.815,252.512c6.561,15.537,2.988,30.638-7.979,33.729
					c-10.969,3.092-25.174-6.997-31.734-22.532c-6.561-15.537-2.988-30.639,7.979-33.73S185.256,236.976,191.815,252.512z"/>
				<path style="fill:#F0B39C;" d="M325.36,252.512c-6.561,15.537-2.986,30.638,7.98,33.729s25.174-6.997,31.732-22.532
					c6.562-15.537,2.99-30.639-7.979-33.73C346.129,226.887,331.92,236.976,325.36,252.512z"/>
			</g>
			<ellipse style="fill:#D12C2C;" cx="258.588" cy="184.904" rx="107.583" ry="98.482"/>
			<path style="fill:#F0B39C;" d="M444.19,532.422l-0.053-0.842c0-51.205-19.168-100.816-42.572-110.264l-99.68-40.158
				c-23.406-9.439-61.737-9.477-85.148-0.112L115.63,421.442c-23.425,9.378-42.593,58.933-42.593,110.138l-0.052,0.842H444.19z"/>
			<path style="fill:#F0B39C;" d="M300.8,383.622c0,21.981-17.818,39.8-39.799,39.8h-4.826c-21.98,0-39.799-17.818-39.799-39.8
				V281.107c0-21.98,17.818-39.8,39.799-39.8h4.826c21.98,0,39.799,17.819,39.799,39.8V383.622z"/>
			<g>
				<path style="fill:#FFDBC5;" d="M353.368,258.662c0,54.088-42.414,97.85-94.766,97.85l0,0c-52.379,0-94.794-43.762-94.794-97.85
					v-56.403c0-54.004,42.415-97.837,94.794-97.837l0,0c52.352,0,94.766,43.833,94.766,97.837V258.662z"/>
			</g>
			<g>
				<circle style="fill:#2961A5;" cx="225.747" cy="261.986" r="9.904"/>
				<circle style="fill:#2961A5;" cx="291.429" cy="261.986" r="9.904"/>
			</g>
			<g>
				<path style="fill:#D12C2C;" d="M258.588,102.246c-55.532,0-100.55,48.792-100.55,108.984c0,19.989,4.969,38.717,13.635,54.824
					l9.989-84.724l153.834-0.007l10.008,84.729c8.664-16.106,13.633-34.833,13.633-54.822
					C359.137,151.038,314.12,102.246,258.588,102.246z"/>
			</g>
			<g>
				<g>
					<path style="fill:#DB4646;" d="M204.77,240.653c7.959-8.755,19.16-12.658,30.818-12.844c5.797-0.092,5.807-9.092,0-9
						c-13.912,0.221-27.672,5.019-37.184,15.479C194.512,238.572,200.858,244.956,204.77,240.653L204.77,240.653z"/>
				</g>
				<g>
					<path style="fill:#DB4646;" d="M318.77,234.289c-9.512-10.461-23.272-15.259-37.182-15.479c-5.807-0.092-5.799,8.908,0,9
						c11.656,0.186,22.858,4.089,30.816,12.844C316.317,244.956,322.665,238.572,318.77,234.289L318.77,234.289z"/>
				</g>
			</g>
			<g>
				<path style="fill:#FFFFFF;" d="M279.346,297.877c-11.174,10.52-30.342,10.52-41.518,0c-7.879-7.418-19.781,4.44-11.879,11.88
					c17.939,16.887,47.338,16.887,65.275,0C299.129,302.317,287.227,290.459,279.346,297.877L279.346,297.877z"/>
			</g>
			<path style="fill:#F0B39C;" d="M272.761,266.079c-0.449,7.895-7.047,14.157-15.202,14.157c-6.908,0-12.678-4.519-14.576-10.712
				c-0.424,1.452-0.732,2.963-0.732,4.546c0,9.028,7.327,16.352,16.339,16.352c9.035,0,16.335-7.325,16.335-16.352
				C274.925,271.144,274.106,268.452,272.761,266.079z"/>
			<path style="fill:#704D70;" d="M444.137,531.58c0-51.205-19.168-100.816-42.572-110.264l-79.255-31.93
				c-11.019,24.201-35.397,41.035-63.722,41.035c-28.194,0-52.479-16.678-63.57-40.698l-79.387,31.719
				c-23.425,9.378-42.593,58.933-42.593,110.138l-0.052,0.842H444.19L444.137,531.58z"/>
			<g>
				<g>
					<path style="fill:#D12C2C;" d="M454.67,159.744c-19.443-12.34-48.384-14.733-70.645-17.153
						c-12.144-1.322-38.379-0.403-47.663,8.899c-13.482,13.516,26.271,14.55,31.734,15.357c23.798,3.505,41.711,22.801,51.18,44.479
						c10.262,23.485,8.186,45.249-2.728,68.416c23.898,3.535,50.446-5.159,64.449-27.113
						C500.105,222.679,488.324,181.097,454.67,159.744z"/>
					<path style="fill:#704D70;" d="M382.085,165.016c0.922,3.905-1.877,8.06-6.221,9.276l-11.447,3.193
						c-4.356,1.209-8.621-0.973-9.535-4.88l-6.464-27.687c-0.921-3.906,1.865-8.058,6.214-9.275l11.447-3.203
						c4.362-1.204,8.622,0.977,9.539,4.891L382.085,165.016z"/>
				</g>
				<g>
					<path style="fill:#D12C2C;" d="M62.506,159.744c19.443-12.34,48.384-14.733,70.645-17.153
						c12.144-1.322,38.379-0.403,47.663,8.899c13.482,13.516-26.271,14.55-31.733,15.357c-23.798,3.505-41.711,22.801-51.18,44.479
						c-10.262,23.485-8.186,45.249,2.728,68.416c-23.898,3.535-50.446-5.159-64.449-27.113
						C17.071,222.679,28.852,181.097,62.506,159.744z"/>
					<path style="fill:#704D70;" d="M135.091,165.016c-0.922,3.905,1.877,8.06,6.221,9.276l11.447,3.193
						c4.356,1.209,8.621-0.973,9.535-4.88l6.464-27.687c0.921-3.906-1.865-8.058-6.214-9.275l-11.447-3.203
						c-4.362-1.204-8.622,0.977-9.539,4.891L135.091,165.016z"/>
				</g>
			</g>
			<g>
				<path style="fill:#E06245;" d="M318.102,146.077H199.069c-18.239,0-33.011,15.555-33.011,34.73v6.543
					c0,19.179,14.772,34.732,33.011,34.732h4.066l16.898-29.618l6.297,29.618l78.07-0.055l7.829-36.756l19.249,33.782
					c11.555-5.407,19.64-17.545,19.64-31.702v-6.543C351.118,161.632,336.333,146.077,318.102,146.077z"/>
			</g>
		</g>
	</g>
</g>
</svg>
