<?xml version="1.0" encoding="iso-8859-1"?>
<!-- Generator: Adobe Illustrator 22.0.1, SVG Export Plug-In . SVG Version: 6.00 Build 0)  -->
<svg version="1.1" xmlns="http://www.w3.org/2000/svg" xmlns:xlink="http://www.w3.org/1999/xlink" x="0px" y="0px"
	 viewBox="0 0 512 512" style="enable-background:new 0 0 512 512;" xml:space="preserve">
<g id="BULINE">
	<path id="XMLID_435_" style="fill:#C79A5B;" d="M512,256c0,70.692-28.654,134.692-74.981,181.019S326.692,512,256,512
		s-134.692-28.654-181.019-74.981S0,326.692,0,256S28.654,121.308,74.981,74.981S185.308,0,256,0s134.692,28.654,181.019,74.981
		S512,185.308,512,256z"/>
</g>
<g id="Icons">
	<g id="XMLID_359_">
		<path id="XMLID_691_" style="fill:#D3A971;" d="M508.73,296.96c-5.575,34.695-18.125,67.058-36.165,95.605
			c-18.04,28.547-41.57,53.28-69.105,72.715c-20.845,14.715-43.985,26.395-68.776,34.396S283.45,512,256,512
			c-16,0-31.658-1.468-46.845-4.276s-29.905-6.959-44.025-12.324c-10.005-3.8-19.708-8.207-29.065-13.18s-18.37-10.51-26.995-16.57
			c-0.075-0.045-0.15-0.095-0.225-0.147s-0.15-0.108-0.225-0.163c-25.155-17.74-46.97-39.9-64.314-65.35S14.09,345.8,6.82,314.9
			c11.125-5.285,25.977-10.4,43.016-11.372s36.264,2.197,56.134,13.483c0,0,5.148,3.01,13.916,4.335s21.159,0.965,35.644-5.775
			c0,0,7.655-3.218,20.911-7.455c13.256-4.238,32.114-9.495,54.519-13.575c0.08-0.015,0.162-0.03,0.246-0.045
			c0.084-0.015,0.169-0.03,0.254-0.045c4.315-0.78,8.76-1.515,13.32-2.19c4.56-0.675,9.235-1.29,14.01-1.83
			c2.59-0.295,5.213-0.567,7.863-0.814s5.328-0.466,8.027-0.656c0.345-0.03,0.693-0.058,1.04-0.082
			c0.348-0.025,0.695-0.047,1.04-0.067c1.74-0.115,3.487-0.22,5.245-0.313s3.525-0.172,5.305-0.237
			c2.62-0.1,5.258-0.172,7.912-0.215c2.655-0.043,5.328-0.055,8.018-0.035c0,0,12.438-0.913,29.625,2.096
			c17.188,3.009,39.125,9.939,58.125,25.624c0,0,5.747,3.297,13.932,5.106s18.807,2.129,28.557-3.826
			c0,0,10.385-6.495,24.984-12.249S491.875,293.995,508.73,296.96z"/>
		<path id="XMLID_788_" style="fill:#92441D;" d="M403.46,465.28c-20.845,14.715-43.985,26.395-68.776,34.396S283.45,512,256,512
			c-16,0-31.658-1.468-46.845-4.276s-29.905-6.959-44.025-12.324c-10.005-3.8-19.708-8.207-29.065-13.18s-18.37-10.51-26.995-16.57
			c-0.075-0.045-0.15-0.095-0.225-0.147s-0.15-0.108-0.225-0.163l3.835-26.455l3.835-26.455c0.165-1.145,0.345-2.282,0.539-3.415
			s0.401-2.26,0.621-3.385s0.455-2.245,0.704-3.359s0.511-2.221,0.786-3.321c0,0,0,0,0-0.001s0-0.004,0-0.009
			c0.115-0.44,0.23-0.88,0.348-1.319s0.238-0.876,0.363-1.311c0.27-1.02,0.555-2.038,0.854-3.05s0.611-2.02,0.936-3.02
			c0.115-0.355,0.232-0.71,0.351-1.065s0.239-0.71,0.359-1.065c0.3-0.865,0.607-1.727,0.924-2.586s0.641-1.714,0.976-2.564
			c0.07-0.195,0.143-0.39,0.216-0.585s0.149-0.39,0.224-0.585c1.815-4.515,3.868-8.913,6.144-13.171
			c2.276-4.259,4.776-8.379,7.486-12.339c1.235-1.805,2.513-3.578,3.833-5.315s2.682-3.44,4.087-5.105
			c0.235-0.28,0.473-0.56,0.713-0.84c0.24-0.28,0.482-0.56,0.727-0.84c0.615-0.7,1.238-1.397,1.866-2.09
			c0.629-0.692,1.264-1.38,1.904-2.06c0.28-0.29,0.557-0.583,0.836-0.874s0.559-0.581,0.844-0.866
			c4.14-4.19,8.56-8.095,13.236-11.683c4.676-3.587,9.609-6.857,14.774-9.777v-0.01v-0.01c0.075-0.035,0.153-0.078,0.233-0.122
			c0.08-0.045,0.162-0.092,0.247-0.138c1.37-0.77,2.757-1.515,4.161-2.233c1.404-0.717,2.824-1.408,4.259-2.068
			c1.93-0.9,3.885-1.753,5.866-2.558c1.981-0.805,3.989-1.563,6.024-2.272l2.05-0.705l2.05-0.705l0.645-0.225l0.645-0.225
			c0,0,0.005,0,0.01-0.001s0.01-0.004,0.01-0.009l2.37-0.815l2.37-0.815l3.595-1.25l3.595-1.25l4.375-1.515l4.375-1.515
			c0.01,0,0.018,0,0.024-0.001s0.011-0.004,0.016-0.009c0.38-0.13,0.733-0.305,1.055-0.518c0.322-0.213,0.615-0.463,0.875-0.742
			c0.325-0.355,0.59-0.755,0.788-1.189c0.198-0.434,0.328-0.901,0.383-1.391c0.01-0.08,0.017-0.165,0.022-0.251
			c0.005-0.086,0.008-0.174,0.008-0.259v-22.06v-22.06h28.16h28.16v22.43v22.43c0,0.42,0.057,0.835,0.167,1.231
			c0.11,0.396,0.273,0.774,0.483,1.119c0.235,0.395,0.527,0.752,0.87,1.061c0.342,0.309,0.735,0.569,1.17,0.769l6.74,3.055
			l6.74,3.055l1.405,0.475l1.405,0.475l1.985,0.67l1.985,0.67c0.255,0.08,0.508,0.165,0.759,0.254s0.501,0.181,0.751,0.276
			c1.2,0.415,2.39,0.85,3.569,1.303c1.179,0.453,2.346,0.922,3.501,1.407c0.695,0.295,1.392,0.598,2.089,0.906
			s1.391,0.624,2.081,0.944c0.345,0.165,0.688,0.328,1.029,0.49s0.681,0.325,1.021,0.49c0.435,0.21,0.87,0.42,1.304,0.635
			s0.866,0.435,1.296,0.665c0.14,0.065,0.278,0.135,0.415,0.206s0.275,0.144,0.415,0.214c0.21,0.11,0.422,0.222,0.635,0.335
			s0.425,0.225,0.635,0.335c0.89,0.48,1.77,0.97,2.644,1.47c0.874,0.5,1.741,1.01,2.606,1.53c2.065,1.25,4.092,2.552,6.077,3.907
			c1.985,1.355,3.927,2.762,5.822,4.222c0.47,0.365,0.94,0.732,1.408,1.102s0.933,0.742,1.393,1.117
			c1.595,1.3,3.162,2.64,4.697,4.018s3.037,2.792,4.502,4.242c0.49,0.48,0.978,0.968,1.461,1.46c0.484,0.493,0.964,0.99,1.439,1.49
			c0.285,0.305,0.57,0.607,0.854,0.911s0.566,0.609,0.846,0.919c0.28,0.31,0.56,0.62,0.839,0.931s0.556,0.624,0.831,0.939
			c1.315,1.495,2.595,3.02,3.84,4.576c1.245,1.556,2.455,3.144,3.63,4.764c1.77,2.43,3.457,4.925,5.059,7.48
			c1.601,2.555,3.116,5.17,4.541,7.84c1.725,3.21,3.318,6.5,4.775,9.865s2.78,6.805,3.965,10.315c1.41,4.15,2.62,8.395,3.621,12.721
			c1.001,4.326,1.794,8.734,2.369,13.209l3.24,25.22L403.46,465.28z"/>
		<path id="XMLID_439_" style="fill:#E39123;" d="M390.988,388.905c-13.272,19.3-32.148,35.418-54.708,46.712
			c-22.56,11.293-48.805,17.762-76.815,17.762c-29.426,0-56.909-7.141-80.221-19.513c-23.312-12.372-42.453-29.977-55.195-50.905
			c0.072-0.195,0.145-0.39,0.219-0.586c0.074-0.195,0.149-0.39,0.227-0.586c1.812-4.517,3.864-8.914,6.141-13.171
			c2.277-4.258,4.778-8.376,7.488-12.335c1.232-1.807,2.509-3.58,3.829-5.318c1.32-1.738,2.684-3.442,4.089-5.109
			c0.234-0.279,0.471-0.558,0.711-0.836c0.24-0.279,0.482-0.558,0.728-0.836c0.613-0.703,1.235-1.4,1.864-2.091
			c0.629-0.691,1.264-1.377,1.906-2.058c0.279-0.29,0.558-0.583,0.838-0.874c0.28-0.291,0.562-0.581,0.846-0.866
			c0.435-0.257,0.87-0.51,1.306-0.763c0.436-0.252,0.874-0.503,1.315-0.754v-0.011v-0.011c0.1-0.05,0.204-0.109,0.309-0.17
			s0.215-0.125,0.326-0.187c1.823-1.02,3.666-2.007,5.53-2.958c1.864-0.951,3.749-1.865,5.656-2.741
			c2.56-1.199,5.155-2.334,7.787-3.403c2.632-1.069,5.3-2.073,8.005-3.01l2.727-0.942l2.727-0.942h29.064h29.064
			c1.868,0.92,3.856,1.639,5.933,2.129s4.244,0.749,6.469,0.749s4.389-0.257,6.463-0.744c2.074-0.488,4.06-1.207,5.928-2.133h25.272
			h25.272l0.942,0.318l0.942,0.318l1.695,0.569l1.695,0.569c0.335,0.112,0.669,0.229,1.004,0.349
			c0.335,0.12,0.669,0.243,1.004,0.365c1.589,0.552,3.17,1.129,4.737,1.73c1.567,0.601,3.12,1.225,4.653,1.872
			c0.926,0.39,1.851,0.792,2.776,1.203s1.847,0.832,2.767,1.262c0.457,0.212,0.912,0.427,1.365,0.643
			c0.453,0.216,0.905,0.434,1.356,0.651c0.58,0.279,1.16,0.558,1.737,0.843s1.151,0.579,1.72,0.885
			c0.184,0.089,0.365,0.181,0.546,0.275c0.181,0.093,0.362,0.188,0.546,0.283c0.284,0.151,0.566,0.298,0.848,0.446
			c0.282,0.148,0.563,0.296,0.848,0.446c1.182,0.636,2.35,1.288,3.51,1.953c1.16,0.665,2.311,1.342,3.46,2.028
			c0.257,0.162,0.516,0.318,0.775,0.474c0.259,0.156,0.519,0.312,0.775,0.474c0.58,0.608,1.152,1.221,1.716,1.84
			c0.565,0.619,1.122,1.244,1.674,1.874c1.316,1.494,2.596,3.02,3.841,4.575s2.455,3.142,3.632,4.759
			c1.768,2.431,3.455,4.927,5.056,7.482s3.119,5.171,4.546,7.842c1.723,3.212,3.315,6.502,4.772,9.866
			C388.484,381.96,389.805,385.398,390.988,388.905z"/>
		<path id="XMLID_437_" style="fill:#D74545;" d="M365.18,344.072c-8.677,17.777-23.248,32.909-41.618,43.596
			s-40.539,16.93-64.411,16.93c-24.764,0-47.7-6.72-66.464-18.15c-18.764-11.43-33.358-27.571-41.438-46.413
			c0.279-0.29,0.558-0.583,0.838-0.874c0.28-0.291,0.562-0.581,0.846-0.866c4.138-4.193,8.557-8.1,13.233-11.688
			c4.676-3.588,9.608-6.859,14.772-9.781v-0.006v-0.006c0.078-0.039,0.156-0.084,0.236-0.13c0.079-0.046,0.16-0.093,0.244-0.138
			c1.372-0.77,2.76-1.514,4.164-2.231c1.404-0.717,2.823-1.405,4.256-2.063c1.929-0.903,3.884-1.757,5.865-2.561
			c1.981-0.804,3.988-1.56,6.024-2.268l2.052-0.708l2.052-0.708h13.3h13.3c1.193,3.597,3.092,6.87,5.533,9.657
			c2.441,2.787,5.424,5.087,8.787,6.738c1.868,0.92,3.856,1.639,5.933,2.129s4.244,0.749,6.469,0.749s4.389-0.257,6.463-0.744
			c2.074-0.488,4.06-1.207,5.928-2.133c3.363-1.645,6.349-3.945,8.792-6.733c2.444-2.788,4.345-6.064,5.539-9.661h10.21h10.21
			l1.985,0.669l1.985,0.669c0.251,0.084,0.502,0.17,0.753,0.259c0.251,0.089,0.502,0.181,0.753,0.276
			c1.199,0.413,2.389,0.848,3.569,1.301c1.179,0.453,2.348,0.924,3.502,1.409c0.697,0.296,1.394,0.597,2.09,0.905
			c0.696,0.308,1.39,0.623,2.081,0.947c0.346,0.162,0.689,0.323,1.03,0.487c0.342,0.163,0.682,0.328,1.022,0.495
			c0.435,0.206,0.87,0.415,1.303,0.63c0.434,0.215,0.866,0.435,1.295,0.664c0.139,0.067,0.276,0.137,0.413,0.208
			c0.137,0.071,0.273,0.144,0.413,0.216c0.212,0.112,0.424,0.223,0.636,0.335c0.212,0.112,0.424,0.223,0.636,0.335
			c0.892,0.48,1.773,0.97,2.647,1.471c0.874,0.5,1.741,1.011,2.606,1.529c2.063,1.249,4.09,2.551,6.075,3.906
			c1.985,1.355,3.929,2.763,5.824,4.224c0.468,0.362,0.937,0.73,1.404,1.101c0.467,0.371,0.933,0.744,1.395,1.118
			c2.13,1.734,4.205,3.538,6.219,5.406c2.014,1.868,3.969,3.8,5.859,5.791c0.58,0.608,1.152,1.221,1.716,1.84
			C364.071,342.817,364.628,343.441,365.18,344.072z"/>
		<path id="XMLID_436_" style="fill:#E39123;" d="M327.663,314.718c-0.502,1.433-1.06,2.847-1.674,4.235
			c-0.615,1.389-1.287,2.752-2.017,4.085c-5.688,10.461-14.721,19.316-25.919,25.556c-11.197,6.24-24.558,9.865-38.901,9.865
			c-14.487,0-27.971-3.697-39.236-10.053c-11.266-6.356-20.313-15.37-25.929-26.004c-0.859-1.617-1.637-3.276-2.329-4.97
			s-1.301-3.422-1.819-5.179c1.929-0.903,3.884-1.757,5.865-2.561c1.981-0.804,3.988-1.56,6.024-2.268l2.052-0.708l2.052-0.708
			l0.647-0.223l0.647-0.223c0,0,0.003,0,0.006-0.001c0.003-0.001,0.006-0.004,0.006-0.01l2.37-0.814l2.37-0.814l3.597-1.249
			l3.597-1.249l4.377-1.517l4.377-1.517c0.006,0,0.011,0,0.017-0.001c0.006-0.001,0.011-0.004,0.017-0.01
			c0.379-0.128,0.733-0.304,1.057-0.517s0.616-0.464,0.873-0.743h0.602h0.602c0,1.556,0.125,3.081,0.368,4.566
			c0.243,1.485,0.602,2.929,1.071,4.323c1.193,3.597,3.092,6.87,5.533,9.657c2.441,2.787,5.424,5.087,8.787,6.738
			c1.868,0.92,3.856,1.639,5.933,2.129s4.244,0.749,6.469,0.749s4.389-0.257,6.463-0.744c2.074-0.488,4.06-1.207,5.928-2.133
			c3.363-1.645,6.349-3.945,8.792-6.733c2.444-2.788,4.345-6.064,5.539-9.661c0.468-1.394,0.828-2.838,1.071-4.323
			c0.243-1.485,0.368-3.01,0.368-4.566h0.323h0.323c0.234,0.396,0.527,0.753,0.87,1.061c0.343,0.308,0.736,0.567,1.171,0.768
			l6.742,3.056l6.742,3.056l1.405,0.474l1.405,0.474l1.985,0.669l1.985,0.669c0.251,0.084,0.502,0.17,0.753,0.259
			c0.251,0.089,0.502,0.181,0.753,0.276c1.199,0.413,2.389,0.848,3.569,1.301c1.179,0.453,2.348,0.924,3.502,1.409
			c0.697,0.296,1.394,0.597,2.09,0.905c0.696,0.308,1.39,0.623,2.081,0.947c0.346,0.162,0.689,0.323,1.03,0.487
			c0.342,0.163,0.682,0.328,1.022,0.495c0.435,0.206,0.87,0.415,1.303,0.63C326.801,314.269,327.233,314.489,327.663,314.718z"/>
		<path id="XMLID_636_" style="fill:#80442A;" d="M273.6,298.39l-4.38,1.515l-4.38,1.515l-3.595,1.25l-3.595,1.25l-2.37,0.815
			l-2.37,0.815c0,0.005-0.002,0.008-0.005,0.009s-0.005,0.001-0.005,0.001l-0.65,0.225l-0.65,0.225l-2.05,0.705l-2.05,0.705
			c-1.995,0.7-3.962,1.44-5.906,2.226c-1.944,0.786-3.864,1.619-5.764,2.504c-0.035,0.02-0.07,0.038-0.106,0.054
			s-0.074,0.031-0.114,0.046c-0.025,0.01-0.052,0.023-0.08,0.036s-0.055,0.029-0.08,0.044c-1.41,0.645-2.803,1.323-4.179,2.027
			s-2.736,1.437-4.081,2.192c-0.085,0.045-0.165,0.093-0.244,0.138s-0.156,0.087-0.236,0.122v0.01v0.01
			c-1.535,0.87-3.05,1.767-4.544,2.695c-1.494,0.927-2.966,1.885-4.416,2.875c-2.64,1.8-5.21,3.698-7.704,5.689
			c-2.494,1.991-4.911,4.076-7.246,6.251c-0.045,0.04-0.087,0.08-0.13,0.121c-0.043,0.041-0.085,0.084-0.13,0.129
			c-0.65,0.6-1.295,1.21-1.934,1.828c-0.639,0.618-1.271,1.243-1.896,1.873c-0.285,0.29-0.568,0.58-0.849,0.87
			s-0.561,0.58-0.841,0.87c-0.64,0.68-1.275,1.368-1.904,2.06s-1.251,1.39-1.866,2.09c-0.245,0.28-0.487,0.56-0.727,0.84
			c-0.24,0.28-0.478,0.56-0.713,0.84c-1.405,1.665-2.768,3.368-4.086,5.105c-1.319,1.738-2.594,3.51-3.824,5.315
			c-1.735,2.54-3.388,5.142-4.95,7.805c-1.562,2.663-3.035,5.385-4.41,8.165c-0.025,0.055-0.052,0.11-0.08,0.165
			s-0.055,0.11-0.08,0.165c-0.745,1.505-1.462,3.022-2.149,4.556s-1.341,3.084-1.961,4.654c-0.08,0.195-0.155,0.39-0.229,0.585
			c-0.074,0.195-0.146,0.39-0.221,0.585c-0.09,0.23-0.18,0.463-0.269,0.696c-0.089,0.234-0.176,0.469-0.261,0.704
			c-0.24,0.62-0.472,1.243-0.7,1.868c-0.228,0.625-0.45,1.252-0.67,1.882c-0.12,0.355-0.237,0.71-0.355,1.065
			s-0.235,0.71-0.355,1.065c-0.325,1-0.638,2.008-0.935,3.02s-0.58,2.03-0.845,3.05c-0.13,0.435-0.25,0.872-0.367,1.311
			s-0.232,0.879-0.352,1.319c0,0.005,0,0.008,0,0.009s0,0.001,0,0.001c-0.145,0.6-0.29,1.202-0.433,1.807s-0.283,1.213-0.418,1.823
			c-0.115,0.505-0.225,1.012-0.331,1.521c-0.106,0.509-0.209,1.019-0.309,1.529c-0.22,1.125-0.427,2.253-0.621,3.385
			c-0.194,1.133-0.374,2.27-0.539,3.415l-0.685,4.745l-0.685,4.745l-0.025,0.165l-0.025,0.165l-3.815,26.32l-3.815,26.32
			c-0.405,2.78-0.1,5.572,0.834,8.131s2.496,4.884,4.606,6.729c0.015,0.01,0.027,0.02,0.039,0.03c0.011,0.01,0.021,0.02,0.031,0.03
			c1.085,0.955,2.18,1.897,3.283,2.829c1.102,0.931,2.212,1.851,3.327,2.761c-10.005-3.8-19.708-8.207-29.065-13.18
			s-18.37-10.51-26.995-16.57l3.855-26.61l3.855-26.61c0.165-1.145,0.345-2.282,0.539-3.415s0.401-2.26,0.621-3.385
			s0.458-2.245,0.708-3.359s0.512-2.221,0.782-3.321c0,0,0,0,0-0.001s0-0.004,0-0.009c0.12-0.44,0.235-0.88,0.353-1.319
			s0.238-0.876,0.368-1.311c0.265-1.02,0.547-2.038,0.845-3.05s0.61-2.02,0.935-3.02c0.12-0.355,0.238-0.71,0.355-1.065
			s0.235-0.71,0.355-1.065c0.275-0.78,0.552-1.56,0.836-2.337s0.574-1.553,0.874-2.323c0.03-0.08,0.062-0.162,0.095-0.245
			s0.065-0.165,0.095-0.245c0.075-0.195,0.148-0.39,0.221-0.585s0.149-0.39,0.229-0.585c1.81-4.515,3.863-8.913,6.14-13.171
			c2.277-4.259,4.78-8.379,7.49-12.339c1.23-1.805,2.505-3.578,3.824-5.315c1.319-1.738,2.681-3.44,4.086-5.105
			c0.235-0.28,0.472-0.56,0.712-0.84s0.482-0.56,0.727-0.84c0.56-0.64,1.128-1.278,1.701-1.91s1.154-1.26,1.739-1.88
			c0.055-0.06,0.11-0.12,0.165-0.18c0.055-0.06,0.11-0.12,0.165-0.18c0.28-0.29,0.56-0.583,0.841-0.874s0.564-0.581,0.849-0.866
			c0.115-0.115,0.227-0.23,0.34-0.344s0.225-0.226,0.34-0.336c4.05-4.045,8.368-7.82,12.929-11.294s9.366-6.646,14.391-9.486v-0.01
			v-0.01c0.08-0.035,0.158-0.078,0.236-0.122c0.079-0.045,0.159-0.092,0.244-0.138c1.3-0.73,2.618-1.44,3.95-2.125
			s2.68-1.345,4.04-1.975c0.07-0.035,0.142-0.068,0.215-0.1c0.073-0.032,0.145-0.065,0.215-0.1c1.93-0.9,3.885-1.753,5.866-2.558
			s3.989-1.563,6.024-2.272l2.05-0.705l2.05-0.705l0.65-0.225l0.65-0.225c0,0,0.003,0,0.005-0.001s0.005-0.004,0.005-0.009
			l2.37-0.815l2.37-0.815l3.595-1.25l3.595-1.25l4.38-1.515l4.38-1.515c0.005,0,0.01,0,0.015-0.001
			c0.005-0.001,0.01-0.004,0.015-0.009c0.38-0.13,0.735-0.305,1.059-0.518c0.324-0.213,0.616-0.463,0.871-0.742
			c0.335-0.365,0.607-0.78,0.807-1.23s0.327-0.935,0.373-1.44c0.005-0.07,0.01-0.14,0.014-0.21c0.004-0.07,0.006-0.14,0.006-0.21
			v-22.06v-22.06h22.64h22.64v22.06v22.06c0,0.585-0.11,1.15-0.315,1.672c-0.205,0.522-0.505,1.003-0.885,1.417
			c-0.255,0.28-0.547,0.53-0.871,0.742c-0.324,0.212-0.679,0.388-1.059,0.518c-0.005,0.005-0.01,0.008-0.015,0.009
			S273.605,298.39,273.6,298.39z"/>
		<path id="XMLID_434_" style="fill:#BF761E;" d="M217.755,322.402c-2.643,1.801-5.214,3.697-7.708,5.686
			c-2.494,1.989-4.911,4.072-7.248,6.247c-0.697,0.641-1.386,1.294-2.067,1.954s-1.356,1.33-2.026,2.005
			c-0.284,0.29-0.566,0.58-0.846,0.87c-0.28,0.29-0.559,0.58-0.838,0.87c-0.641,0.68-1.277,1.366-1.906,2.058
			s-1.25,1.389-1.864,2.091c-0.245,0.279-0.488,0.558-0.728,0.836s-0.477,0.558-0.711,0.836c-1.405,1.667-2.769,3.371-4.089,5.109
			c-1.32,1.738-2.597,3.512-3.83,5.318c-1.734,2.537-3.385,5.139-4.946,7.801c-1.561,2.663-3.034,5.387-4.411,8.169
			c-0.775,1.556-1.52,3.128-2.232,4.718c-0.712,1.589-1.393,3.195-2.04,4.818c-0.078,0.195-0.153,0.39-0.227,0.586
			c-0.074,0.195-0.146,0.39-0.219,0.586c-0.335,0.848-0.658,1.704-0.973,2.564c-0.315,0.86-0.622,1.724-0.923,2.589
			c-0.123,0.351-0.243,0.705-0.361,1.061c-0.118,0.355-0.236,0.712-0.353,1.069c-0.323,0.998-0.636,2.005-0.934,3.017
			s-0.583,2.03-0.85,3.05c-0.128,0.435-0.248,0.873-0.365,1.312c-0.117,0.439-0.231,0.88-0.348,1.32c0,0.006,0,0.008,0,0.01
			s0,0.001,0,0.001c-0.273,1.099-0.535,2.205-0.785,3.319c-0.25,1.114-0.487,2.235-0.71,3.361c-0.217,1.121-0.424,2.247-0.618,3.379
			c-0.194,1.132-0.375,2.27-0.542,3.413l-0.686,4.745l-0.686,4.745c-7.377-5.42-14.147-11.434-20.206-17.956
			c-6.059-6.522-11.406-13.551-15.94-21c0.072-0.195,0.145-0.39,0.219-0.586c0.074-0.195,0.149-0.39,0.227-0.586
			c1.812-4.517,3.864-8.914,6.141-13.171c2.277-4.258,4.778-8.376,7.488-12.335c1.232-1.807,2.509-3.58,3.83-5.318
			c1.32-1.738,2.684-3.442,4.089-5.109c0.234-0.279,0.471-0.558,0.711-0.836s0.482-0.558,0.728-0.836
			c0.613-0.703,1.235-1.4,1.864-2.091c0.629-0.691,1.264-1.377,1.906-2.058c0.279-0.29,0.558-0.583,0.838-0.874
			c0.28-0.291,0.562-0.581,0.846-0.866c0.435-0.257,0.87-0.51,1.306-0.763c0.436-0.252,0.874-0.503,1.315-0.754v-0.011v-0.011
			c0.1-0.05,0.204-0.109,0.309-0.17s0.215-0.125,0.326-0.187c1.823-1.02,3.666-2.007,5.53-2.958
			c1.864-0.951,3.749-1.865,5.656-2.741c2.56-1.199,5.155-2.334,7.787-3.403c2.632-1.069,5.3-2.073,8.005-3.01l2.727-0.942
			l2.727-0.942h14.32H217.755z"/>
		<path id="XMLID_433_" style="fill:#A03B3B;" d="M235.833,312.153c-0.039,0.017-0.075,0.033-0.112,0.05
			c-0.036,0.017-0.072,0.033-0.112,0.05c-1.433,0.658-2.852,1.347-4.256,2.063c-1.404,0.717-2.792,1.461-4.164,2.231
			c-0.084,0.045-0.164,0.092-0.244,0.138s-0.158,0.091-0.236,0.13v0.006v0.006c-1.533,0.87-3.047,1.768-4.541,2.696
			s-2.965,1.888-4.415,2.88c-2.643,1.801-5.214,3.697-7.708,5.686c-2.494,1.989-4.911,4.072-7.248,6.247
			c-0.697,0.641-1.386,1.294-2.067,1.954s-1.356,1.33-2.026,2.005c-0.284,0.29-0.566,0.58-0.846,0.87
			c-0.28,0.29-0.559,0.58-0.838,0.87c-0.641,0.68-1.277,1.366-1.906,2.058s-1.25,1.389-1.864,2.091
			c-0.245,0.279-0.488,0.558-0.728,0.836s-0.477,0.558-0.711,0.836c-1.405,1.667-2.769,3.371-4.089,5.109
			c-1.32,1.738-2.597,3.512-3.83,5.318c-1.734,2.537-3.385,5.139-4.946,7.801c-1.561,2.663-3.034,5.387-4.411,8.169
			c-4.918-4.645-9.329-9.697-13.155-15.09c-3.825-5.392-7.065-11.125-9.641-17.13c0.279-0.29,0.558-0.583,0.838-0.874
			c0.28-0.291,0.562-0.581,0.846-0.866c4.138-4.193,8.557-8.1,13.233-11.688c4.676-3.588,9.608-6.859,14.772-9.781v-0.006v-0.006
			c0.078-0.039,0.156-0.084,0.236-0.13c0.079-0.046,0.16-0.093,0.244-0.138c1.372-0.77,2.76-1.514,4.164-2.231
			c1.404-0.717,2.823-1.405,4.256-2.063c1.929-0.903,3.884-1.757,5.865-2.561s3.988-1.56,6.024-2.268l2.052-0.708l2.052-0.708h13.3
			h13.3c0.362,1.087,0.789,2.147,1.276,3.173C234.685,310.206,235.231,311.199,235.833,312.153z"/>
		<path id="XMLID_432_" style="fill:#BF761E;" d="M232.923,306.008c0.362,1.087,0.789,2.147,1.276,3.173
			c0.487,1.026,1.033,2.019,1.635,2.972c-0.039,0.017-0.075,0.033-0.112,0.05c-0.036,0.017-0.072,0.033-0.112,0.05
			c-1.433,0.658-2.852,1.347-4.256,2.063c-1.404,0.717-2.792,1.461-4.164,2.231c-0.084,0.045-0.164,0.092-0.244,0.138
			s-0.158,0.091-0.236,0.13v0.006v0.006c-1.533,0.87-3.047,1.768-4.541,2.696s-2.965,1.888-4.415,2.88
			c-2.643,1.801-5.214,3.697-7.708,5.686c-2.494,1.989-4.911,4.072-7.248,6.247c-1.634-1.835-3.153-3.753-4.545-5.745
			c-1.391-1.992-2.654-4.058-3.775-6.188c-0.859-1.617-1.637-3.276-2.329-4.97s-1.301-3.422-1.819-5.179
			c1.929-0.903,3.884-1.757,5.865-2.561s3.988-1.56,6.024-2.268l2.052-0.708l2.052-0.708l0.647-0.223l0.647-0.223
			c0,0,0.003,0,0.006-0.001c0.003-0.001,0.006-0.004,0.006-0.01l2.37-0.814l2.37-0.814l3.597-1.249l3.597-1.249l4.377-1.517
			l4.377-1.517c0.006,0,0.011,0,0.017-0.001c0.006-0.001,0.011-0.004,0.017-0.01c0.379-0.128,0.733-0.304,1.057-0.517
			s0.616-0.464,0.873-0.743h0.602h0.602c0,1.556,0.125,3.081,0.368,4.566C232.094,303.169,232.454,304.613,232.923,306.008z"/>
		<path id="XMLID_431_" style="fill:#689BA0;" d="M246.415,431.698c0,3.516,1.425,6.699,3.729,9.003
			c2.304,2.304,5.487,3.729,9.003,3.729c3.516,0,6.699-1.425,9.003-3.729c2.304-2.304,3.729-5.487,3.729-9.003
			c0-3.516-1.425-6.699-3.729-9.003c-2.304-2.304-5.487-3.729-9.003-3.729c-3.516,0-6.699,1.425-9.003,3.729
			C247.841,424.999,246.415,428.182,246.415,431.698z"/>
		<path id="XMLID_430_" style="fill:#689BA0;" d="M298.356,418.966c0,3.516,1.425,6.699,3.729,9.003s5.487,3.729,9.003,3.729
			c3.516,0,6.699-1.425,9.003-3.729c2.304-2.304,3.729-5.487,3.729-9.003c0-3.516-1.425-6.699-3.729-9.003
			c-2.304-2.304-5.487-3.729-9.003-3.729c-3.516,0-6.699,1.425-9.003,3.729C299.781,412.266,298.356,415.45,298.356,418.966z"/>
		<path id="XMLID_429_" style="fill:#689BA0;" d="M344.553,391.865c0,3.516,1.425,6.699,3.729,9.003s5.487,3.729,9.003,3.729
			s6.699-1.425,9.003-3.729c2.304-2.304,3.729-5.487,3.729-9.003c0-3.516-1.425-6.699-3.729-9.003
			c-2.304-2.304-5.487-3.729-9.003-3.729s-6.699,1.425-9.003,3.729C345.978,385.165,344.553,388.349,344.553,391.865z"/>
		<path id="XMLID_428_" style="fill:#689BA0;" d="M217.386,418.148c0,3.516-1.425,6.699-3.729,9.003
			c-2.304,2.304-5.487,3.729-9.003,3.729s-6.699-1.425-9.003-3.729c-2.304-2.304-3.729-5.487-3.729-9.003s1.425-6.699,3.729-9.003
			c2.304-2.304,5.487-3.729,9.003-3.729s6.699,1.425,9.003,3.729C215.961,411.448,217.386,414.632,217.386,418.148z"/>
		<path id="XMLID_427_" style="fill:#689BA0;" d="M171.189,391.047c0,3.516-1.425,6.699-3.729,9.003
			c-2.304,2.304-5.487,3.729-9.003,3.729s-6.699-1.425-9.003-3.729c-2.304-2.304-3.729-5.487-3.729-9.003
			c0-3.516,1.425-6.699,3.729-9.003c2.304-2.304,5.487-3.729,9.003-3.729s6.699,1.425,9.003,3.729
			C169.764,384.348,171.189,387.531,171.189,391.047z"/>
		<path id="XMLID_426_" style="fill:#6D4242;" d="M287.309,259.947h-28.161h-28.161v12.826v12.826
			c9.387,3.222,18.774,4.833,28.16,4.833c9.387,0,18.774-1.611,28.161-4.833l0-12.826V259.947z"/>
		<path id="XMLID_425_" style="fill:#92441D;" d="M269.067,15.459h-12.381h-12.381c-23.591,0-44.949,10.148-60.409,26.554
			s-25.022,39.072-25.022,64.108v33.266v33.266c0,24.817,9.874,41.199,23.348,54.532c13.474,13.333,30.547,23.617,44.945,36.235
			c8.572,7.513,19.046,11.269,29.519,11.269s20.947-3.756,29.519-11.269c14.398-12.619,31.472-22.902,44.945-36.235
			c13.474-13.333,23.348-29.716,23.348-54.532v-33.266v-33.266c0-25.036-9.562-47.701-25.022-64.108S292.658,15.459,269.067,15.459z
			"/>
		<path id="XMLID_421_" style="fill:#80442A;" d="M197.907,172.655v-33.268v-33.268c0-23.755,8.61-45.38,22.701-61.546
			c14.091-16.166,33.664-26.872,55.59-28.791c-1.177-0.112-2.359-0.192-3.548-0.245c-1.189-0.053-2.385-0.078-3.59-0.078h-12.379
			h-12.379c-23.593,0-44.951,10.149-60.41,26.556s-25.02,39.072-25.02,64.104v16.468v16.468c-5.405,0-10.299,2.191-13.841,5.733
			c-3.542,3.542-5.733,8.436-5.733,13.841c0,5.405,2.191,10.299,5.733,13.841c3.542,3.542,8.436,5.733,13.841,5.733
			c0.032,0,0.064-0.002,0.095-0.005c0.031-0.002,0.063-0.005,0.095-0.005c1.419,22.653,11.52,37.893,24.728,50.503
			s29.523,22.589,43.37,34.719c7.015,6.151,15.304,9.786,23.825,10.903c8.521,1.117,17.273-0.286,25.213-4.212
			c-1.762-0.864-3.485-1.854-5.157-2.969s-3.291-2.356-4.847-3.722c-14.398-12.614-31.47-22.896-44.942-36.229
			C207.78,213.853,197.907,197.47,197.907,172.655z"/>
		<path id="XMLID_419_" style="fill:#92441D;" d="M334.923,158.629c0,5.405,2.191,10.299,5.733,13.841
			c3.542,3.542,8.436,5.733,13.841,5.733s10.299-2.191,13.841-5.733s5.733-8.436,5.733-13.841s-2.191-10.299-5.733-13.841
			s-8.436-5.733-13.841-5.733s-10.299,2.191-13.841,5.733C337.114,148.33,334.923,153.223,334.923,158.629z"/>
		<path style="fill:#3D2107;" d="M231.159,135.244c-0.65,0-1.307-0.181-1.894-0.56c-8.051-5.194-17.61-6.763-28.415-4.66
			c-8.122,1.58-13.914,4.748-13.971,4.78c-1.69,0.934-3.819,0.325-4.756-1.364c-0.937-1.688-0.333-3.815,1.354-4.754
			c0.271-0.151,6.763-3.729,16.036-5.533c12.462-2.425,24.061-0.47,33.546,5.649c1.625,1.048,2.091,3.214,1.043,4.838
			C233.434,134.678,232.309,135.244,231.159,135.244z"/>
		<path id="XMLID_393_" style="fill:#1B305C;" d="M216.022,156.268c0,3.251-0.915,6.194-2.395,8.324
			c-1.48,2.13-3.525,3.448-5.783,3.448s-4.303-1.318-5.783-3.448c-1.48-2.13-2.395-5.073-2.395-8.324s0.915-6.194,2.395-8.324
			s3.525-3.448,5.783-3.448s4.303,1.318,5.783,3.448S216.022,153.017,216.022,156.268z"/>
		<path style="fill:#3D2107;" d="M326.226,135.244c-0.65,0-1.307-0.181-1.894-0.56c-8.051-5.194-17.61-6.763-28.415-4.66
			c-8.122,1.58-13.914,4.748-13.971,4.78c-1.69,0.934-3.819,0.325-4.756-1.364c-0.937-1.688-0.333-3.815,1.354-4.754
			c0.271-0.151,6.763-3.729,16.036-5.533c12.459-2.423,24.061-0.471,33.546,5.649c1.624,1.048,2.091,3.214,1.043,4.838
			C328.5,134.678,327.375,135.244,326.226,135.244z"/>
		<path id="XMLID_387_" style="fill:#1B305C;" d="M311.089,156.268c0,3.251-0.915,6.194-2.395,8.324
			c-1.48,2.13-3.525,3.448-5.783,3.448c-2.258,0-4.303-1.318-5.783-3.448c-1.48-2.13-2.395-5.073-2.395-8.324
			s0.915-6.194,2.395-8.324s3.525-3.448,5.783-3.448c2.258,0,4.303,1.318,5.783,3.448S311.089,153.017,311.089,156.268z"/>
		<path id="XMLID_386_" style="fill:#6D4242;" d="M265.217,188.984h-9.277h-9.277c-1.365,0-2.6-0.553-3.495-1.448
			s-1.448-2.13-1.448-3.495v-0.448v-0.448c0-1.365,0.553-2.6,1.448-3.495c0.894-0.894,2.13-1.448,3.495-1.448h9.277h9.277
			c1.365,0,2.6,0.553,3.495,1.448c0.894,0.894,1.448,2.13,1.448,3.495v0.448v0.448c0,1.365-0.553,2.6-1.448,3.495
			S266.582,188.984,265.217,188.984z"/>
		<path id="XMLID_379_" style="fill:#FFFFFF;" d="M235.032,202.081c-0.535,0-1.013,0.229-1.348,0.591
			c-0.334,0.362-0.524,0.858-0.481,1.391c0.499,6.142,3.282,12.06,7.484,16.441c4.202,4.382,9.822,7.228,15.998,7.228h0h0
			c6.175,0,11.796-2.846,15.998-7.228c4.202-4.382,6.984-10.299,7.484-16.441c0.043-0.533-0.146-1.028-0.481-1.391
			c-0.334-0.362-0.813-0.591-1.348-0.591h-21.653H235.032z"/>
		<path style="fill:#192B49;" d="M222.71,151.094c-0.589,0-1.185-0.148-1.733-0.461c-5.717-3.267-11.87-4.26-18.291-2.955
			c-4.717,0.959-7.825,2.864-7.856,2.883c-1.64,1.015-3.796,0.519-4.818-1.114c-1.022-1.634-0.538-3.783,1.092-4.812
			c0.167-0.105,4.144-2.587,10.187-3.816c8.02-1.631,16.028-0.338,23.159,3.736c1.679,0.959,2.262,3.097,1.303,4.775
			C225.107,150.461,223.926,151.094,222.71,151.094z"/>
		<path style="fill:#192B49;" d="M317.777,151.094c-0.589,0-1.185-0.148-1.733-0.461c-5.717-3.267-11.872-4.26-18.291-2.955
			c-4.717,0.959-7.825,2.864-7.856,2.883c-1.639,1.015-3.796,0.519-4.818-1.114c-1.022-1.634-0.538-3.783,1.092-4.812
			c0.167-0.105,4.144-2.587,10.187-3.816c8.02-1.631,16.028-0.338,23.159,3.736c1.679,0.959,2.262,3.097,1.303,4.775
			C320.173,150.461,318.992,151.094,317.777,151.094z"/>
		<path id="XMLID_186_" style="fill:#FFFFFF;" d="M189.34,191.774c-1.595,0-3.042-0.649-4.089-1.696s-1.696-2.494-1.696-4.089
			s0.649-3.042,1.696-4.089s2.494-1.696,4.089-1.696h12.794h12.794c1.595,0,3.042,0.649,4.089,1.696s1.696,2.494,1.696,4.089
			s-0.649,3.042-1.696,4.089s-2.494,1.696-4.089,1.696h-12.794H189.34z"/>
		<path id="XMLID_189_" style="fill:#FFFFFF;" d="M189.34,213.519c-1.595,0-3.042-0.649-4.089-1.696s-1.696-2.494-1.696-4.089
			s0.649-3.042,1.696-4.089s2.494-1.696,4.089-1.696h12.794h12.794c1.595,0,3.042,0.649,4.089,1.696s1.696,2.494,1.696,4.089
			s-0.649,3.042-1.696,4.089s-2.494,1.696-4.089,1.696h-12.794H189.34z"/>
		<path id="XMLID_203_" style="fill:#FFFFFF;" d="M295.826,191.774c-1.595,0-3.042-0.649-4.089-1.696s-1.696-2.494-1.696-4.089
			s0.649-3.042,1.696-4.089s2.494-1.696,4.089-1.696h12.794h12.794c1.595,0,3.042,0.649,4.089,1.696s1.696,2.494,1.696,4.089
			s-0.649,3.042-1.696,4.089s-2.494,1.696-4.089,1.696H308.62H295.826z"/>
		<path id="XMLID_230_" style="fill:#FFFFFF;" d="M295.826,213.519c-1.595,0-3.042-0.649-4.089-1.696s-1.696-2.494-1.696-4.089
			s0.649-3.042,1.696-4.089s2.494-1.696,4.089-1.696h12.794h12.794c1.595,0,3.042,0.649,4.089,1.696s1.696,2.494,1.696,4.089
			s-0.649,3.042-1.696,4.089s-2.494,1.696-4.089,1.696H308.62H295.826z"/>
		<path id="XMLID_2581_" style="fill:#6D4242;" d="M159.639,152.489c-2.271,0-4.326,0.92-5.815,2.408
			c-1.488,1.488-2.408,3.544-2.408,5.815s0.92,4.326,2.408,5.815c1.488,1.488,3.544,2.408,5.815,2.408v-8.223V152.489z"/>
		<path id="XMLID_2596_" style="fill:#6D4242;" d="M353.174,168.935c2.271,0,4.326-0.92,5.815-2.408
			c1.488-1.488,2.408-3.544,2.408-5.815s-0.92-4.326-2.408-5.814c-1.488-1.488-3.544-2.408-5.815-2.408v8.223V168.935z"/>
		<path id="XMLID_368_" style="fill:#E9B12D;" d="M135.681,187.887c0,5.48,2.221,10.442,5.813,14.034s8.553,5.813,14.034,5.813
			c5.48,0,10.442-2.221,14.034-5.813c3.592-3.592,5.813-8.553,5.813-14.034c0-5.48-2.221-10.442-5.813-14.034
			c-3.592-3.592-8.553-5.813-14.034-5.813c-5.48,0-10.442,2.221-14.034,5.813C137.902,177.445,135.681,182.407,135.681,187.887z"/>
		<path id="XMLID_367_" style="fill:#E9B12D;" d="M337.439,187.887c0,5.48,2.221,10.442,5.813,14.034
			c3.592,3.592,8.553,5.813,14.034,5.813c5.48,0,10.442-2.221,14.034-5.813c3.592-3.592,5.813-8.553,5.813-14.034
			c0-5.48-2.221-10.442-5.813-14.034c-3.591-3.592-8.553-5.813-14.034-5.813c-5.48,0-10.442,2.221-14.034,5.813
			C339.661,177.445,337.439,182.407,337.439,187.887z"/>
	</g>
</g>
</svg>
