<?xml version="1.0" encoding="utf-8"?>
<!-- Generator: Adobe Illustrator 24.0.1, SVG Export Plug-In . SVG Version: 6.00 Build 0)  -->
<svg version="1.1" xmlns="http://www.w3.org/2000/svg" xmlns:xlink="http://www.w3.org/1999/xlink" x="0px" y="0px"
	 viewBox="0 0 180.5 244.3" style="enable-background:new 0 0 180.5 244.3;" xml:space="preserve">
<style type="text/css">
	.st0{display:none;}
	.st1{display:inline;fill:#F7F8FC;}
	.st2{display:inline;}
	.st3{fill:#F7F8FC;}
	.st4{fill:#FFFFFF;stroke:#0561FC;stroke-width:10.0091;}
	.st5{fill:#9AC7F7;}
	.st6{fill:#C5E1F9;stroke:#0561FC;stroke-width:10.0091;}
	.st7{fill:none;stroke:#0561FC;stroke-width:10.0091;}
	.st8{fill:#9AC7F7;stroke:#0561FC;stroke-width:10.0091;}
	.st9{fill:#FFFFFF;stroke:#0561FC;stroke-width:10.0091;stroke-linejoin:round;}
	.st10{fill:#C5E1F9;}
	.st11{fill:#FFFFFF;}
	.st12{fill:none;stroke:#0561FC;stroke-width:10.0091;stroke-linejoin:bevel;}
</style>
<g id="Layer_2">
</g>
<g id="Layer_3">
</g>
<g id="Layer_4">
	<g>
		<path class="st6" d="M5,244.3v-29.5c0-13,11.9-23.6,26.6-23.6h116.8c14.7,0,26.6,10.6,26.6,23.6v29.5"/>
		<path class="st4" d="M113.1,189.2c0,12.4-10,22.5-22.4,22.5h-1.4c-12.4,0-22.4-10.1-22.4-22.5v-57.6c0-12.4,10-22.5,22.4-22.5h1.4
			c12.4,0,22.4,10.1,22.4,22.5V189.2z"/>
		<path class="st4" d="M161.5,121c0,6.5-5.3,11.8-11.7,11.8h-1c-6.5,0-11.7-5.3-11.7-11.8V99.4c0-6.5,5.3-11.8,11.7-11.8h1
			c6.5,0,11.7,5.3,11.7,11.8V121z"/>
		<path class="st4" d="M147.7,115.5c0,32.9-26.6,59.6-59.4,59.6l0,0c-32.8,0-59.4-26.7-59.4-59.6V67.8c0-32.9,26.6-59.6,59.4-59.6
			l0,0c32.8,0,59.4,26.7,59.4,59.6V115.5z"/>
		<path class="st4" d="M88.3,157.5c-23.1,0-41.9-18.9-41.9-42"/>
		<path class="st8" d="M165.4,37c1.1-3,1.7-6.1,1.7-9.5V5h-100c-9.6,0-18.1,5-23,12.5h-9.4c-11.8,0-21.3,9.6-21.3,21.4v77.7h15V70.1
			c0-8.3,6.7-15,15-15h1.8c12.9,14.8,34.5,24.5,59,24.5c33.5,0,61.7-18.1,69.5-42.6H165.4z"/>
		<path class="st4" d="M28.9,87.8c-5.9,0.6-15.5,5.6-15.5,11.6V121c0,6.1,9.6,11,15.5,11.6V87.8z"/>
		<polyline class="st4" points="98.5,82.1 106,120.9 91,120.9 		"/>
		<line class="st7" x1="67.3" y1="102.1" x2="79.8" y2="102.1"/>
		<line class="st7" x1="114.8" y1="102.1" x2="127.3" y2="102.1"/>
	</g>
</g>
</svg>
